<?xml version="1.0" encoding="utf-8"?>
<!-- Generator: Adobe Illustrator 17.0.0, SVG Export Plug-In . SVG Version: 6.00 Build 0)  -->
<!DOCTYPE svg PUBLIC "-//W3C//DTD SVG 1.1//EN" "http://www.w3.org/Graphics/SVG/1.1/DTD/svg11.dtd">
<svg version="1.1" id="Capa_1" xmlns="http://www.w3.org/2000/svg" xmlns:xlink="http://www.w3.org/1999/xlink" x="0px" y="0px"
	 width="2272px" height="1872px" viewBox="0 0 2272 1872" enable-background="new 0 0 2272 1872" xml:space="preserve">
<linearGradient id="SVGID_1_" gradientUnits="userSpaceOnUse" x1="1136" y1="21" x2="1136" y2="1077.6134">
	<stop  offset="0" style="stop-color:#FF8497"/>
	<stop  offset="1" style="stop-color:#FFFFFF"/>
</linearGradient>
<path fill="url(#SVGID_1_)" d="M2272,0v1872c0,0-351-331-979-299s-633.49-114.17-448.75-281.09c0,0-573.74,20.66-844.25,325.77V0
	H2272z"/>
<g>
	<linearGradient id="SVGID_2_" gradientUnits="userSpaceOnUse" x1="131.4515" y1="729.4628" x2="131.4515" y2="813.7375">
		<stop  offset="0" style="stop-color:#FF8497"/>
		<stop  offset="1" style="stop-color:#A01F24"/>
	</linearGradient>
	<path fill="url(#SVGID_2_)" d="M131.452,715.667c0,0-38.182,59.184-2.012,61.266l-3.074,31.427h5.087h5.087l-3.074-31.427
		C169.633,774.85,131.452,715.667,131.452,715.667z"/>
	<linearGradient id="SVGID_3_" gradientUnits="userSpaceOnUse" x1="219.8181" y1="837.5616" x2="219.8181" y2="905.471">
		<stop  offset="0" style="stop-color:#FF8497"/>
		<stop  offset="1" style="stop-color:#A01F24"/>
	</linearGradient>
	<path fill="url(#SVGID_3_)" d="M219.818,826.445c0,0-30.767,47.691-1.622,49.369l-2.477,25.324h4.099h4.099l-2.477-25.324
		C250.585,874.135,219.818,826.445,219.818,826.445z"/>
	<linearGradient id="SVGID_4_" gradientUnits="userSpaceOnUse" x1="440.5424" y1="936.895" x2="440.5424" y2="1004.8044">
		<stop  offset="0" style="stop-color:#FF8497"/>
		<stop  offset="1" style="stop-color:#A01F24"/>
	</linearGradient>
	<path fill="url(#SVGID_4_)" d="M440.542,925.778c0,0-30.767,47.691-1.622,49.369l-2.477,25.324h4.099h4.099l-2.477-25.324
		C471.31,973.469,440.542,925.778,440.542,925.778z"/>
	<linearGradient id="SVGID_5_" gradientUnits="userSpaceOnUse" x1="357.1514" y1="983.5616" x2="357.1514" y2="1051.4711">
		<stop  offset="0" style="stop-color:#FF8497"/>
		<stop  offset="1" style="stop-color:#A01F24"/>
	</linearGradient>
	<path fill="url(#SVGID_5_)" d="M357.151,972.445c0,0-30.767,47.691-1.622,49.369l-2.477,25.324h4.099h4.099l-2.477-25.324
		C387.918,1020.135,357.151,972.445,357.151,972.445z"/>
	<linearGradient id="SVGID_6_" gradientUnits="userSpaceOnUse" x1="653.1514" y1="812.0062" x2="653.1514" y2="879.9155">
		<stop  offset="0" style="stop-color:#FF8497"/>
		<stop  offset="1" style="stop-color:#A01F24"/>
	</linearGradient>
	<path fill="url(#SVGID_6_)" d="M653.151,800.889c0,0-30.767,47.691-1.622,49.369l-2.477,25.324h4.099h4.099l-2.477-25.324
		C683.919,848.58,653.151,800.889,653.151,800.889z"/>
	<linearGradient id="SVGID_7_" gradientUnits="userSpaceOnUse" x1="1065.5874" y1="671.5931" x2="1065.5874" y2="739.5025">
		<stop  offset="0" style="stop-color:#FF8497"/>
		<stop  offset="1" style="stop-color:#A01F24"/>
	</linearGradient>
	<path fill="url(#SVGID_7_)" d="M1065.587,660.476c0,0-30.767,47.691-1.622,49.369l-2.477,25.324h4.099h4.099l-2.477-25.324
		C1096.355,708.167,1065.587,660.476,1065.587,660.476z"/>
	<linearGradient id="SVGID_8_" gradientUnits="userSpaceOnUse" x1="1605.3505" y1="786.8498" x2="1605.3505" y2="854.7592">
		<stop  offset="0" style="stop-color:#FF8497"/>
		<stop  offset="1" style="stop-color:#A01F24"/>
	</linearGradient>
	<path fill="url(#SVGID_8_)" d="M1605.35,775.733c0,0-30.767,47.691-1.622,49.369l-2.477,25.324h4.099h4.099l-2.477-25.324
		C1636.118,823.423,1605.35,775.733,1605.35,775.733z"/>
	<linearGradient id="SVGID_9_" gradientUnits="userSpaceOnUse" x1="1359.5728" y1="734.59" x2="1359.5728" y2="802.4993">
		<stop  offset="0" style="stop-color:#FF8497"/>
		<stop  offset="1" style="stop-color:#A01F24"/>
	</linearGradient>
	<path fill="url(#SVGID_9_)" d="M1359.573,723.473c0,0-30.767,47.691-1.622,49.369l-2.477,25.324h4.099h4.099l-2.477-25.324
		C1390.34,771.164,1359.573,723.473,1359.573,723.473z"/>
	<linearGradient id="SVGID_10_" gradientUnits="userSpaceOnUse" x1="239.6943" y1="851.5461" x2="239.6943" y2="931.578">
		<stop  offset="0" style="stop-color:#FF8497"/>
		<stop  offset="1" style="stop-color:#A01F24"/>
	</linearGradient>
	<path fill="url(#SVGID_10_)" d="M239.694,838.445c0,0-36.259,56.204-1.911,58.181l-2.92,29.845h4.831h4.831l-2.92-29.845
		C275.954,894.648,239.694,838.445,239.694,838.445z"/>
	<linearGradient id="SVGID_11_" gradientUnits="userSpaceOnUse" x1="416.3609" y1="935.5461" x2="416.3609" y2="1015.578">
		<stop  offset="0" style="stop-color:#FF8497"/>
		<stop  offset="1" style="stop-color:#A01F24"/>
	</linearGradient>
	<path fill="url(#SVGID_11_)" d="M416.361,922.445c0,0-36.259,56.204-1.911,58.181l-2.92,29.845h4.831h4.831l-2.92-29.845
		C452.62,978.648,416.361,922.445,416.361,922.445z"/>
	<linearGradient id="SVGID_12_" gradientUnits="userSpaceOnUse" x1="809.5424" y1="863.3525" x2="809.5424" y2="931.2619">
		<stop  offset="0" style="stop-color:#FF8497"/>
		<stop  offset="1" style="stop-color:#A01F24"/>
	</linearGradient>
	<path fill="url(#SVGID_12_)" d="M809.542,852.235c0,0-30.767,47.691-1.622,49.369l-2.477,25.324h4.099h4.099l-2.477-25.324
		C840.31,899.926,809.542,852.235,809.542,852.235z"/>
	<linearGradient id="SVGID_13_" gradientUnits="userSpaceOnUse" x1="785.361" y1="862.0037" x2="785.361" y2="942.0355">
		<stop  offset="0" style="stop-color:#FF8497"/>
		<stop  offset="1" style="stop-color:#A01F24"/>
	</linearGradient>
	<path fill="url(#SVGID_13_)" d="M785.361,848.902c0,0-36.259,56.204-1.911,58.181l-2.92,29.845h4.831h4.831l-2.92-29.845
		C821.62,905.106,785.361,848.902,785.361,848.902z"/>
	<linearGradient id="SVGID_14_" gradientUnits="userSpaceOnUse" x1="1153.2505" y1="648.1748" x2="1153.2505" y2="716.0842">
		<stop  offset="0" style="stop-color:#FF8497"/>
		<stop  offset="1" style="stop-color:#A01F24"/>
	</linearGradient>
	<path fill="url(#SVGID_14_)" d="M1153.25,637.058c0,0-30.767,47.691-1.622,49.369l-2.477,25.324h4.099h4.099l-2.477-25.324
		C1184.018,684.748,1153.25,637.058,1153.25,637.058z"/>
	<linearGradient id="SVGID_15_" gradientUnits="userSpaceOnUse" x1="1477.2343" y1="762.1691" x2="1477.2343" y2="830.0785">
		<stop  offset="0" style="stop-color:#FF8497"/>
		<stop  offset="1" style="stop-color:#A01F24"/>
	</linearGradient>
	<path fill="url(#SVGID_15_)" d="M1477.234,751.052c0,0-30.767,47.691-1.622,49.369l-2.477,25.324h4.099h4.099l-2.477-25.324
		C1508.001,798.743,1477.234,751.052,1477.234,751.052z"/>
	<linearGradient id="SVGID_16_" gradientUnits="userSpaceOnUse" x1="1129.069" y1="664.1593" x2="1129.069" y2="744.1912">
		<stop  offset="0" style="stop-color:#FF8497"/>
		<stop  offset="1" style="stop-color:#A01F24"/>
	</linearGradient>
	<path fill="url(#SVGID_16_)" d="M1129.069,651.058c0,0-36.259,56.204-1.911,58.181l-2.92,29.845h4.831h4.831l-2.92-29.845
		C1165.328,707.262,1129.069,651.058,1129.069,651.058z"/>
	<linearGradient id="SVGID_17_" gradientUnits="userSpaceOnUse" x1="1454.5527" y1="768.4637" x2="1454.5527" y2="848.4955">
		<stop  offset="0" style="stop-color:#FF8497"/>
		<stop  offset="1" style="stop-color:#A01F24"/>
	</linearGradient>
	<path fill="url(#SVGID_17_)" d="M1454.553,755.362c0,0-36.259,56.204-1.911,58.181l-2.92,29.845h4.831h4.831l-2.92-29.845
		C1490.812,811.566,1454.553,755.362,1454.553,755.362z"/>
</g>
<linearGradient id="SVGID_18_" gradientUnits="userSpaceOnUse" x1="884.285" y1="685" x2="884.285" y2="1473.071">
	<stop  offset="0" style="stop-color:#FF8497"/>
	<stop  offset="1" style="stop-color:#A01F24"/>
</linearGradient>
<path fill="url(#SVGID_18_)" d="M1768.57,972.45L1373,1285l-280-164l-248.75,170.91c0,0-573.74,20.66-844.25,325.77V657l357,388
	l276-196l152,87l260-227l56,44l96-96l232,188l100-72L1768.57,972.45z"/>
<linearGradient id="SVGID_19_" gradientUnits="userSpaceOnUse" x1="1182.1182" y1="1059.1378" x2="1182.1182" y2="1205.0013">
	<stop  offset="0" style="stop-color:#FF8497"/>
	<stop  offset="1" style="stop-color:#A01F24"/>
</linearGradient>
<path fill="url(#SVGID_19_)" d="M1182.118,1035.259c0,0-66.085,102.436-3.483,106.039l-5.321,54.394h8.804h8.804l-5.321-54.394
	C1248.203,1137.695,1182.118,1035.259,1182.118,1035.259z"/>
<linearGradient id="SVGID_20_" gradientUnits="userSpaceOnUse" x1="1642.1182" y1="995.8756" x2="1642.1182" y2="1100.1523">
	<stop  offset="0" style="stop-color:#FF8497"/>
	<stop  offset="1" style="stop-color:#A01F24"/>
</linearGradient>
<path fill="url(#SVGID_20_)" d="M1642.118,978.805c0,0-47.244,73.23-2.49,75.807l-3.804,38.886h6.294h6.294l-3.804-38.886
	C1689.362,1052.035,1642.118,978.805,1642.118,978.805z"/>
<linearGradient id="SVGID_21_" gradientUnits="userSpaceOnUse" x1="2126.6809" y1="740.5539" x2="2126.6809" y2="872.217">
	<stop  offset="0" style="stop-color:#FF8497"/>
	<stop  offset="1" style="stop-color:#A01F24"/>
</linearGradient>
<path fill="url(#SVGID_21_)" d="M2126.681,719c0,0-59.651,92.463-3.144,95.716l-4.803,49.098h7.947h7.947l-4.803-49.098
	C2186.332,811.463,2126.681,719,2126.681,719z"/>
<linearGradient id="SVGID_22_" gradientUnits="userSpaceOnUse" x1="1694.2148" y1="921.2914" x2="1694.2148" y2="1066.7845">
	<stop  offset="0" style="stop-color:#FF8497"/>
	<stop  offset="1" style="stop-color:#A01F24"/>
</linearGradient>
<path fill="url(#SVGID_22_)" d="M1694.215,897.473c0,0-65.917,102.175-3.474,105.77l-5.308,54.256h8.782h8.782l-5.308-54.256
	C1760.132,999.649,1694.215,897.473,1694.215,897.473z"/>
<linearGradient id="SVGID_23_" gradientUnits="userSpaceOnUse" x1="1431.4915" y1="991.6626" x2="1903.6615" y2="2325.1055">
	<stop  offset="0" style="stop-color:#FF8497"/>
	<stop  offset="1" style="stop-color:#A01F24"/>
</linearGradient>
<path fill="url(#SVGID_23_)" d="M2272,936v936c0,0-119.77-112.95-344.57-200.5c-160.03-62.34-373.28-111.81-634.43-98.5
	c-627.97,32-633.49-114.15-448.78-281.06l0.03-0.03L1093,1121l280,164l395.57-312.55L2021,773L2272,936z"/>
<linearGradient id="SVGID_24_" gradientUnits="userSpaceOnUse" x1="138.7893" y1="1119.1505" x2="138.7893" y2="1566.4468">
	<stop  offset="0" style="stop-color:#FF8497"/>
	<stop  offset="1" style="stop-color:#A01F24"/>
</linearGradient>
<path fill="url(#SVGID_24_)" d="M138.789,1045.926c0,0-202.653,314.123-10.681,325.174l-16.317,166.801h26.999h26.999L149.47,1371.1
	C341.442,1360.048,138.789,1045.926,138.789,1045.926z"/>
<linearGradient id="SVGID_25_" gradientUnits="userSpaceOnUse" x1="-1.131411e-008" y1="1006.6788" x2="1.883499e-008" y2="1676.658">
	<stop  offset="0" style="stop-color:#FF8497"/>
	<stop  offset="1" style="stop-color:#A01F24"/>
</linearGradient>
<path fill="url(#SVGID_25_)" d="M0,897c0,0-303.542,470.506-15.999,487.06l-24.441,249.842H0h40.44L15.999,1384.06
	C303.542,1367.506,0,897,0,897z"/>
<linearGradient id="SVGID_26_" gradientUnits="userSpaceOnUse" x1="588.7893" y1="1090.4138" x2="588.7893" y2="1362.1702">
	<stop  offset="0" style="stop-color:#FF8497"/>
	<stop  offset="1" style="stop-color:#A01F24"/>
</linearGradient>
<path fill="url(#SVGID_26_)" d="M588.789,1045.926c0,0-123.122,190.846-6.489,197.561l-9.914,101.341h16.403h16.403l-9.914-101.341
	C711.912,1236.772,588.789,1045.926,588.789,1045.926z"/>
<linearGradient id="SVGID_27_" gradientUnits="userSpaceOnUse" x1="1378.1815" y1="1294.6053" x2="1378.1815" y2="1611.0071">
	<stop  offset="0" style="stop-color:#FFFFFF"/>
	<stop  offset="1" style="stop-color:#FACDD8"/>
</linearGradient>
<path fill="url(#SVGID_27_)" d="M1378.182,1242.809c0,0-143.349,222.199-7.556,230.017l-11.542,117.989h19.098h19.098
	l-11.542-117.989C1521.531,1465.008,1378.182,1242.809,1378.182,1242.809z"/>
<linearGradient id="SVGID_28_" gradientUnits="userSpaceOnUse" x1="1931.074" y1="1087.7609" x2="1931.074" y2="1753.3243">
	<stop  offset="0" style="stop-color:#FFFFFF"/>
	<stop  offset="1" style="stop-color:#FACDD8"/>
</linearGradient>
<path fill="url(#SVGID_28_)" d="M1931.074,978.805c0,0-301.541,467.405-15.893,483.85l-24.28,248.195h40.173h40.173l-24.28-248.195
	C2232.615,1446.21,1931.074,978.805,1931.074,978.805z"/>
<linearGradient id="SVGID_29_" gradientUnits="userSpaceOnUse" x1="1505.3556" y1="1177.7169" x2="1505.3556" y2="1671.4272">
	<stop  offset="0" style="stop-color:#FFFFFF"/>
	<stop  offset="1" style="stop-color:#FACDD8"/>
</linearGradient>
<path fill="url(#SVGID_29_)" d="M1505.356,1096.894c0,0-223.681,346.718-11.79,358.916l-18.011,184.109h29.8h29.8l-18.011-184.109
	C1729.037,1443.612,1505.356,1096.894,1505.356,1096.894z"/>
<linearGradient id="SVGID_30_" gradientUnits="userSpaceOnUse" x1="645.485" y1="1154.4063" x2="645.485" y2="1333.9586">
	<stop  offset="0" style="stop-color:#FF8497"/>
	<stop  offset="1" style="stop-color:#A01F24"/>
</linearGradient>
<path fill="url(#SVGID_30_)" d="M645.485,1125.013c0,0-81.348,126.094-4.288,130.531l-6.55,66.957h10.838h10.838l-6.55-66.957
	C726.833,1251.107,645.485,1125.013,645.485,1125.013z"/>
<linearGradient id="SVGID_31_" gradientUnits="userSpaceOnUse" x1="763.485" y1="1188.442" x2="763.485" y2="1331.6385">
	<stop  offset="0" style="stop-color:#FF8497"/>
	<stop  offset="1" style="stop-color:#A01F24"/>
</linearGradient>
<path fill="url(#SVGID_31_)" d="M763.485,1165c0,0-64.877,100.563-3.419,104.101l-5.224,53.399h8.643h8.643l-5.224-53.399
	C828.362,1265.563,763.485,1165,763.485,1165z"/>
<linearGradient id="SVGID_32_" gradientUnits="userSpaceOnUse" x1="506.2808" y1="160.2965" x2="506.2808" y2="590.8221" gradientTransform="matrix(0.7071 -0.7071 0.7071 0.7071 -139.797 477.3225)">
	<stop  offset="0" style="stop-color:#FACDD8"/>
	<stop  offset="1" style="stop-color:#FFFFFF"/>
</linearGradient>
<circle fill="url(#SVGID_32_)" cx="506.281" cy="407.411" r="262.411"/>
<linearGradient id="SVGID_33_" gradientUnits="userSpaceOnUse" x1="660.2015" y1="1230.3268" x2="1096.2015" y2="1818.3268">
	<stop  offset="0" style="stop-color:#FFFFFF"/>
	<stop  offset="1" style="stop-color:#FF8497"/>
</linearGradient>
<path fill="url(#SVGID_33_)" d="M2272,1872H0v-254.32c270.51-305.11,844.25-325.77,844.25-325.77C659.51,1458.83,665,1605,1293,1573
	S2272,1872,2272,1872z"/>
<g>
	<linearGradient id="SVGID_34_" gradientUnits="userSpaceOnUse" x1="1115.8597" y1="250.5264" x2="1115.8597" y2="341.9119">
		<stop  offset="0" style="stop-color:#FFFFFF"/>
		<stop  offset="1" style="stop-color:#FACDD8"/>
	</linearGradient>
	<circle fill="url(#SVGID_34_)" cx="1115.86" cy="302.98" r="55.701"/>
	<linearGradient id="SVGID_35_" gradientUnits="userSpaceOnUse" x1="1466.1898" y1="250.791" x2="1466.1898" y2="349.5713">
		<stop  offset="0" style="stop-color:#FFFFFF"/>
		<stop  offset="1" style="stop-color:#FACDD8"/>
	</linearGradient>
	<path fill="url(#SVGID_35_)" d="M1548.358,329.449c0,13.807-3.406,26.82-9.424,38.248h-145.487
		c-6.018-11.428-9.424-24.441-9.424-38.248c0-6.779,0.823-13.364,2.367-19.661c4.933-20.098,17.265-37.289,33.933-48.524
		c13.098-8.828,28.88-13.983,45.867-13.983c38.765,0,71.262,26.842,79.908,62.961
		C1547.574,316.403,1548.358,322.835,1548.358,329.449z"/>
	<linearGradient id="SVGID_36_" gradientUnits="userSpaceOnUse" x1="1279.3665" y1="170.9078" x2="1279.3665" y2="337.1856">
		<stop  offset="0" style="stop-color:#FFFFFF"/>
		<stop  offset="1" style="stop-color:#FACDD8"/>
	</linearGradient>
	<path fill="url(#SVGID_36_)" d="M1430.638,316.278c0,18.054-3.162,35.364-8.964,51.419h-284.615
		c-1.402-3.872-2.646-7.812-3.724-11.814c-2.316-8.544-3.895-17.384-4.672-26.451c-0.375-4.337-0.568-8.72-0.568-13.154
		c0-22.357,4.849-43.579,13.557-62.678c23.822-52.265,76.525-88.6,137.715-88.6c64.142,0,118.957,39.917,140.956,96.265
		c4.695,12.013,7.897,24.776,9.373,38.055C1430.321,304.889,1430.638,310.544,1430.638,316.278z"/>
	<linearGradient id="SVGID_37_" gradientUnits="userSpaceOnUse" x1="1047.7319" y1="303.2251" x2="1047.7319" y2="357.701">
		<stop  offset="0" style="stop-color:#FFFFFF"/>
		<stop  offset="1" style="stop-color:#FACDD8"/>
	</linearGradient>
	<path fill="url(#SVGID_37_)" d="M1161.386,367.697H934.078c22.374-39.639,64.892-66.408,113.654-66.408
		c4.196,0,8.346,0.199,12.439,0.59c25.741,2.43,49.308,12.348,68.491,27.552c7.114,5.638,13.631,12.008,19.428,18.985
		C1153.075,354.412,1157.531,360.867,1161.386,367.697z"/>
	<linearGradient id="SVGID_38_" gradientUnits="userSpaceOnUse" x1="1465.5824" y1="298.7716" x2="1465.5824" y2="357.0105">
		<stop  offset="0" style="stop-color:#FFFFFF"/>
		<stop  offset="1" style="stop-color:#FACDD8"/>
	</linearGradient>
	<path fill="url(#SVGID_38_)" d="M1638.048,367.697h-344.931c26.031-25.803,57.824-45.81,93.273-57.909
		c13.915-4.752,28.392-8.289,43.307-10.469c11.712-1.726,23.697-2.617,35.886-2.617c28.205,0,55.297,4.769,80.516,13.54
		C1581.019,322.387,1612.341,342.212,1638.048,367.697z"/>
</g>
<g>
	<linearGradient id="SVGID_39_" gradientUnits="userSpaceOnUse" x1="2044.3901" y1="408.1588" x2="2044.3901" y2="499.5442">
		<stop  offset="0" style="stop-color:#FFFFFF"/>
		<stop  offset="1" style="stop-color:#FACDD8"/>
	</linearGradient>
	<circle fill="url(#SVGID_39_)" cx="2044.39" cy="460.613" r="55.701"/>
	<linearGradient id="SVGID_40_" gradientUnits="userSpaceOnUse" x1="2207.8967" y1="328.5402" x2="2207.8967" y2="494.818">
		<stop  offset="0" style="stop-color:#FFFFFF"/>
		<stop  offset="1" style="stop-color:#FACDD8"/>
	</linearGradient>
	<path fill="url(#SVGID_40_)" d="M2359.169,473.91c0,18.054-3.162,35.364-8.965,51.419h-284.615
		c-1.402-3.872-2.646-7.812-3.724-11.815c-2.316-8.544-3.895-17.384-4.672-26.451c-0.375-4.337-0.568-8.72-0.568-13.154
		c0-22.357,4.848-43.579,13.557-62.678c23.822-52.265,76.525-88.6,137.715-88.6c64.142,0,118.957,39.917,140.957,96.265
		c4.695,12.013,7.897,24.776,9.373,38.055C2358.851,462.521,2359.169,468.176,2359.169,473.91z"/>
	<linearGradient id="SVGID_41_" gradientUnits="userSpaceOnUse" x1="1976.2623" y1="460.8575" x2="1976.2623" y2="515.3333">
		<stop  offset="0" style="stop-color:#FFFFFF"/>
		<stop  offset="1" style="stop-color:#FACDD8"/>
	</linearGradient>
	<path fill="url(#SVGID_41_)" d="M2089.917,525.33h-227.308c22.374-39.639,64.892-66.408,113.654-66.408
		c4.196,0,8.346,0.199,12.439,0.59c25.741,2.43,49.308,12.348,68.491,27.552c7.114,5.638,13.631,12.008,19.428,18.985
		C2081.605,512.045,2086.062,518.5,2089.917,525.33z"/>
	<linearGradient id="SVGID_42_" gradientUnits="userSpaceOnUse" x1="2394.1128" y1="456.4039" x2="2394.1128" y2="514.6428">
		<stop  offset="0" style="stop-color:#FFFFFF"/>
		<stop  offset="1" style="stop-color:#FACDD8"/>
	</linearGradient>
	<path fill="url(#SVGID_42_)" d="M2566.578,525.33h-344.931c26.031-25.803,57.823-45.81,93.273-57.909
		c13.915-4.752,28.392-8.289,43.307-10.469c11.712-1.726,23.697-2.617,35.886-2.617c28.205,0,55.297,4.769,80.516,13.54
		C2509.55,480.019,2540.871,499.844,2566.578,525.33z"/>
</g>
<g>
	<linearGradient id="SVGID_43_" gradientUnits="userSpaceOnUse" x1="1423.6902" y1="563.7973" x2="1423.6902" y2="614.5344">
		<stop  offset="0" style="stop-color:#FFFFFF"/>
		<stop  offset="1" style="stop-color:#FACDD8"/>
	</linearGradient>
	<circle fill="url(#SVGID_43_)" cx="1423.69" cy="592.92" r="30.925"/>
	<linearGradient id="SVGID_44_" gradientUnits="userSpaceOnUse" x1="1618.1929" y1="563.9442" x2="1618.1929" y2="618.7869">
		<stop  offset="0" style="stop-color:#FFFFFF"/>
		<stop  offset="1" style="stop-color:#FACDD8"/>
	</linearGradient>
	<path fill="url(#SVGID_44_)" d="M1663.812,607.615c0,7.666-1.891,14.89-5.232,21.235h-80.774
		c-3.341-6.345-5.232-13.57-5.232-21.235c0-3.764,0.457-7.42,1.314-10.916c2.739-11.158,9.585-20.703,18.84-26.94
		c7.272-4.901,16.034-7.763,25.465-7.763c21.522,0,39.564,14.903,44.365,34.956C1663.377,600.372,1663.812,603.943,1663.812,607.615
		z"/>
	<linearGradient id="SVGID_45_" gradientUnits="userSpaceOnUse" x1="1514.4688" y1="519.5932" x2="1514.4688" y2="611.9104">
		<stop  offset="0" style="stop-color:#FFFFFF"/>
		<stop  offset="1" style="stop-color:#FACDD8"/>
	</linearGradient>
	<path fill="url(#SVGID_45_)" d="M1598.455,600.302c0,10.023-1.756,19.634-4.977,28.548H1435.46
		c-0.778-2.15-1.469-4.337-2.068-6.559c-1.286-4.744-2.162-9.652-2.594-14.685c-0.208-2.408-0.315-4.842-0.315-7.303
		c0-12.413,2.692-24.195,7.527-34.799c13.226-29.018,42.486-49.191,76.459-49.191c35.612,0,66.045,22.162,78.259,53.446
		c2.607,6.67,4.385,13.755,5.204,21.128C1598.278,593.979,1598.455,597.119,1598.455,600.302z"/>
	<linearGradient id="SVGID_46_" gradientUnits="userSpaceOnUse" x1="1385.8657" y1="593.0555" x2="1385.8657" y2="623.3005">
		<stop  offset="0" style="stop-color:#FFFFFF"/>
		<stop  offset="1" style="stop-color:#FACDD8"/>
	</linearGradient>
	<path fill="url(#SVGID_46_)" d="M1448.966,628.85h-126.201c12.422-22.008,36.028-36.869,63.101-36.869
		c2.329,0,4.633,0.11,6.906,0.328c14.291,1.349,27.375,6.856,38.026,15.297c3.95,3.13,7.568,6.667,10.786,10.54
		C1444.352,621.475,1446.826,625.058,1448.966,628.85z"/>
	<linearGradient id="SVGID_47_" gradientUnits="userSpaceOnUse" x1="1617.8556" y1="590.5829" x2="1617.8556" y2="622.9171">
		<stop  offset="0" style="stop-color:#FFFFFF"/>
		<stop  offset="1" style="stop-color:#FACDD8"/>
	</linearGradient>
	<path fill="url(#SVGID_47_)" d="M1713.608,628.85h-191.505c14.452-14.326,32.104-25.434,51.785-32.151
		c7.726-2.638,15.763-4.602,24.044-5.812c6.503-0.958,13.157-1.453,19.924-1.453c15.659,0,30.701,2.648,44.702,7.518
		C1681.946,603.694,1699.336,614.701,1713.608,628.85z"/>
</g>
<g>
	<linearGradient id="SVGID_48_" gradientUnits="userSpaceOnUse" x1="1903.0828" y1="195.6065" x2="1903.0828" y2="228.3097">
		<stop  offset="0" style="stop-color:#FFFFFF"/>
		<stop  offset="1" style="stop-color:#FACDD8"/>
	</linearGradient>
	<circle fill="url(#SVGID_48_)" cx="1903.083" cy="214.378" r="19.933"/>
	<linearGradient id="SVGID_49_" gradientUnits="userSpaceOnUse" x1="2028.4519" y1="195.7012" x2="2028.4519" y2="231.0507">
		<stop  offset="0" style="stop-color:#FFFFFF"/>
		<stop  offset="1" style="stop-color:#FACDD8"/>
	</linearGradient>
	<path fill="url(#SVGID_49_)" d="M2057.856,223.85c0,4.941-1.219,9.598-3.373,13.687h-52.064c-2.154-4.09-3.373-8.746-3.373-13.687
		c0-2.426,0.295-4.783,0.847-7.036c1.766-7.192,6.178-13.344,12.143-17.365c4.687-3.159,10.335-5.004,16.414-5.004
		c13.872,0,25.502,9.606,28.596,22.531C2057.576,219.181,2057.856,221.483,2057.856,223.85z"/>
	<linearGradient id="SVGID_50_" gradientUnits="userSpaceOnUse" x1="1961.5952" y1="167.1142" x2="1961.5952" y2="226.6183">
		<stop  offset="0" style="stop-color:#FFFFFF"/>
		<stop  offset="1" style="stop-color:#FACDD8"/>
	</linearGradient>
	<path fill="url(#SVGID_50_)" d="M2015.729,219.136c0,6.461-1.132,12.655-3.208,18.401h-101.852
		c-0.502-1.386-0.947-2.796-1.333-4.228c-0.829-3.058-1.394-6.221-1.672-9.466c-0.134-1.552-0.203-3.121-0.203-4.707
		c0-8.001,1.735-15.595,4.852-22.43c8.525-18.704,27.385-31.706,49.283-31.706c22.954,0,42.57,14.285,50.443,34.449
		c1.68,4.299,2.826,8.866,3.354,13.618C2015.616,215.061,2015.729,217.084,2015.729,219.136z"/>
	<linearGradient id="SVGID_51_" gradientUnits="userSpaceOnUse" x1="1878.7025" y1="214.4652" x2="1878.7025" y2="233.96">
		<stop  offset="0" style="stop-color:#FFFFFF"/>
		<stop  offset="1" style="stop-color:#FACDD8"/>
	</linearGradient>
	<path fill="url(#SVGID_51_)" d="M1919.375,237.537h-81.344c8.007-14.185,23.222-23.765,40.672-23.765
		c1.501,0,2.987,0.071,4.451,0.211c9.212,0.87,17.645,4.419,24.51,9.86c2.546,2.017,4.878,4.297,6.952,6.794
		C1916.4,232.783,1917.995,235.093,1919.375,237.537z"/>
	<linearGradient id="SVGID_52_" gradientUnits="userSpaceOnUse" x1="2028.2345" y1="212.8715" x2="2028.2345" y2="233.7129">
		<stop  offset="0" style="stop-color:#FFFFFF"/>
		<stop  offset="1" style="stop-color:#FACDD8"/>
	</linearGradient>
	<path fill="url(#SVGID_52_)" d="M2089.953,237.537h-123.437c9.315-9.234,20.693-16.394,33.379-20.723
		c4.98-1.701,10.16-2.966,15.498-3.746c4.191-0.618,8.48-0.937,12.842-0.937c10.093,0,19.788,1.707,28.813,4.846
		C2069.545,221.322,2080.753,228.417,2089.953,237.537z"/>
</g>
</svg>
