<svg id="Capa_1" enable-background="new 0 0 510 510" height="512" viewBox="0 0 510 510" width="512" xmlns="http://www.w3.org/2000/svg" xmlns:xlink="http://www.w3.org/1999/xlink"><linearGradient id="lg1"><stop offset="0" stop-color="#eaf6ff"/><stop offset="1" stop-color="#b3dafe"/></linearGradient><linearGradient id="SVGID_1_" gradientUnits="userSpaceOnUse" x1="231.906" x2="275.67" xlink:href="#lg1" y1="405.637" y2="518.785"/><linearGradient id="lg2"><stop offset="0" stop-color="#d8ecfe" stop-opacity="0"/><stop offset=".7867" stop-color="#9bd1fe" stop-opacity=".787"/><stop offset="1" stop-color="#8ac9fe"/></linearGradient><linearGradient id="SVGID_2_" gradientUnits="userSpaceOnUse" x1="255" x2="255" xlink:href="#lg2" y1="460.516" y2="501.346"/><linearGradient id="SVGID_3_" gradientUnits="userSpaceOnUse" x1="255" x2="255" xlink:href="#lg1" y1="214.562" y2="254.149"/><linearGradient id="SVGID_4_" gradientUnits="userSpaceOnUse" x1="255" x2="255" xlink:href="#lg2" y1="240.831" y2="267.812"/><linearGradient id="SVGID_5_" gradientUnits="userSpaceOnUse" x1="255" x2="255" xlink:href="#lg1" y1="279.652" y2="319.239"/><linearGradient id="SVGID_6_" gradientUnits="userSpaceOnUse" x1="255" x2="255" xlink:href="#lg2" y1="305.92" y2="332.902"/><linearGradient id="SVGID_7_" gradientUnits="userSpaceOnUse" x1="255" x2="255" xlink:href="#lg1" y1="344.741" y2="384.328"/><linearGradient id="SVGID_8_" gradientUnits="userSpaceOnUse" x1="255" x2="255" xlink:href="#lg2" y1="371.01" y2="397.991"/><linearGradient id="SVGID_9_" gradientUnits="userSpaceOnUse" x1="222.081" x2="319.971" xlink:href="#lg1" y1="103.348" y2="265.478"/><linearGradient id="SVGID_10_" gradientUnits="userSpaceOnUse" x1="296.649" x2="296.649" xlink:href="#lg2" y1="203.707" y2="-18.273"/><linearGradient id="SVGID_11_" gradientUnits="userSpaceOnUse" x1="255" x2="255" xlink:href="#lg2" y1="151.015" y2="206.637"/><linearGradient id="SVGID_12_" gradientUnits="userSpaceOnUse" x1="255" x2="255" y1="6.466" y2="50.943"><stop offset="0" stop-color="#a0d4ff"/><stop offset=".1509" stop-color="#9bd2ff"/><stop offset=".313" stop-color="#8ecdfe"/><stop offset=".4804" stop-color="#79c4fe"/><stop offset=".6514" stop-color="#5bb7fe"/><stop offset=".8252" stop-color="#34a7fd"/><stop offset="1" stop-color="#0593fc"/></linearGradient><linearGradient id="SVGID_13_" gradientUnits="userSpaceOnUse" x1="255" x2="255" y1="2.398" y2="64.462"><stop offset="0" stop-color="#2740b0" stop-opacity="0"/><stop offset=".2659" stop-color="#263eac" stop-opacity=".266"/><stop offset=".5639" stop-color="#22389e" stop-opacity=".564"/><stop offset=".8763" stop-color="#1c2f88" stop-opacity=".876"/><stop offset="1" stop-color="#192a7d"/></linearGradient><linearGradient id="SVGID_14_" gradientUnits="userSpaceOnUse" x1="255" x2="255" y1="6.466" y2="60.134"><stop offset="0" stop-color="#2740b0" stop-opacity="0"/><stop offset=".27" stop-color="#253ca8" stop-opacity=".27"/><stop offset=".697" stop-color="#1e3391" stop-opacity=".697"/><stop offset="1" stop-color="#192a7d"/></linearGradient><linearGradient id="lg3"><stop offset="0" stop-color="#8ac9fe" stop-opacity="0"/><stop offset=".2672" stop-color="#7db6e1" stop-opacity=".267"/><stop offset=".8432" stop-color="#5d8798" stop-opacity=".843"/><stop offset="1" stop-color="#537983"/></linearGradient><linearGradient id="SVGID_15_" gradientUnits="userSpaceOnUse" x1="146.892" x2="23.892" xlink:href="#lg3" y1="297.037" y2="206.037"/><linearGradient id="SVGID_16_" gradientUnits="userSpaceOnUse" x1="392.712" x2="354.379" xlink:href="#lg3" y1="474.482" y2="425.315"/><linearGradient id="SVGID_17_" gradientUnits="userSpaceOnUse" x1="49.333" x2="214.21" y1="246.806" y2="246.806"><stop offset="0" stop-color="#fd4755"/><stop offset="1" stop-color="#d2024e"/></linearGradient><linearGradient id="lg4"><stop offset="0" stop-color="#c00148" stop-opacity="0"/><stop offset="1" stop-color="#6d3326"/></linearGradient><linearGradient id="SVGID_18_" gradientUnits="userSpaceOnUse" x1="99.07" x2="130.07" xlink:href="#lg4" y1="342.143" y2="400.143"/><linearGradient id="SVGID_19_" gradientUnits="userSpaceOnUse" x1="156.147" x2="143.647" xlink:href="#lg4" y1="124.892" y2="139.142"/><linearGradient id="SVGID_20_" gradientUnits="userSpaceOnUse" x1="116.031" x2="103.531" xlink:href="#lg4" y1="89.703" y2="103.953"/><linearGradient id="SVGID_21_" gradientUnits="userSpaceOnUse" x1="323.333" x2="509.099" y1="247.314" y2="247.314"><stop offset="0" stop-color="#a2e62e"/><stop offset=".1231" stop-color="#97de30"/><stop offset=".3395" stop-color="#79cb36"/><stop offset=".6234" stop-color="#4aab3f"/><stop offset=".9609" stop-color="#09804c"/><stop offset="1" stop-color="#017b4e"/></linearGradient><linearGradient id="lg5"><stop offset="0" stop-color="#017b4e" stop-opacity="0"/><stop offset="1" stop-color="#026841"/></linearGradient><linearGradient id="SVGID_22_" gradientUnits="userSpaceOnUse" x1="355.961" x2="385.837" xlink:href="#lg5" y1="381.628" y2="351.752"/><linearGradient id="SVGID_23_" gradientUnits="userSpaceOnUse" x1="395.083" x2="424.959" xlink:href="#lg5" y1="420.75" y2="390.874"/><linearGradient id="SVGID_24_" gradientUnits="userSpaceOnUse" x1="395.333" x2="300.646" xlink:href="#lg5" y1="109.712" y2="109.712"/><g><g><g><path d="m359.862 510h-209.724c-10.639 0-19.264-8.625-19.264-19.264v-45.33c0-26.708 21.651-48.36 48.36-48.36h151.533c26.708 0 48.36 21.651 48.36 48.36v45.33c-.001 10.639-8.626 19.264-19.265 19.264z" fill="url(#SVGID_1_)"/><path d="m130.874 445.406v45.33c0 10.639 8.625 19.264 19.264 19.264h209.724c10.639 0 19.264-8.625 19.264-19.264v-45.33z" fill="url(#SVGID_2_)"/></g><g><g><path d="m336.811 266.866h-163.622c-17.974 0-32.545-14.571-32.545-32.545 0-17.974 14.571-32.545 32.545-32.545h163.623c17.974 0 32.545 14.571 32.545 32.545-.001 17.975-14.572 32.545-32.546 32.545z" fill="url(#SVGID_3_)"/><path d="m140.644 234.322c0 17.974 14.571 32.545 32.545 32.545h163.623c17.974 0 32.545-14.571 32.545-32.545z" fill="url(#SVGID_4_)"/></g><g><path d="m336.811 331.956h-163.622c-17.974 0-32.545-14.571-32.545-32.545 0-17.974 14.571-32.545 32.545-32.545h163.623c17.974 0 32.545 14.571 32.545 32.545-.001 17.974-14.572 32.545-32.546 32.545z" fill="url(#SVGID_5_)"/><path d="m140.644 299.411c0 17.974 14.571 32.545 32.545 32.545h163.623c17.974 0 32.545-14.571 32.545-32.545z" fill="url(#SVGID_6_)"/></g><g><path d="m336.811 397.046h-163.622c-17.974 0-32.545-14.571-32.545-32.545 0-17.974 14.571-32.545 32.545-32.545h163.623c17.974 0 32.545 14.571 32.545 32.545-.001 17.974-14.572 32.545-32.546 32.545z" fill="url(#SVGID_7_)"/><path d="m140.644 364.501c0 17.974 14.571 32.545 32.545 32.545h163.623c17.974 0 32.545-14.571 32.545-32.545z" fill="url(#SVGID_8_)"/></g><g><path d="m372.298 134.517c-14.807-23.192-36.486-43.302-62.214-55.602-8.643-4.132-14.212-12.781-14.212-22.36v-11.775c0-3.957-3.207-7.164-7.164-7.164h-67.416c-3.957 0-7.164 3.207-7.164 7.164v11.774c0 9.579-5.569 18.228-14.212 22.36-25.728 12.3-47.407 32.41-62.214 55.602-18.58 29.103 2.727 67.26 37.255 67.26h160.086c34.528.001 55.835-38.157 37.255-67.259z" fill="url(#SVGID_9_)"/><path d="m310.084 78.915c-8.643-4.132-14.212-12.781-14.212-22.36v-11.775c0-3.957-3.208-7.164-7.164-7.164h-67.416c-3.957 0-7.164 3.207-7.164 7.164v9.547l142.078 142.078c20.977-11.516 30.451-39.399 16.092-61.889-14.806-23.191-36.486-43.301-62.214-55.601z" fill="url(#SVGID_10_)"/><path d="m137.826 134.323c-18.679 29.161 2.5 67.454 37.131 67.454h160.086c34.63 0 55.81-38.293 37.131-67.454-3.243-5.062-6.822-9.971-10.69-14.69h-212.968c-3.869 4.718-7.447 9.627-10.69 14.69z" fill="url(#SVGID_11_)"/></g></g><g><path d="m308.95 53.927h-107.9c-4.906 0-8.883-3.977-8.883-8.883v-36.161c0-4.906 3.977-8.883 8.883-8.883h107.9c4.906 0 8.883 3.977 8.883 8.883v36.162c0 4.905-3.977 8.882-8.883 8.882z" fill="url(#SVGID_12_)"/><path d="m288.708 53.927h-67.416c-3.957 0-7.164-3.207-7.164-7.164v-39.599c0-3.957 3.207-7.164 7.164-7.164h67.416c3.957 0 7.164 3.207 7.164 7.164v39.599c0 3.957-3.207 7.164-7.164 7.164z" fill="url(#SVGID_13_)"/><path d="m264.137 53.927h-18.274c-2.249 0-4.073-1.823-4.073-4.073v-45.781c0-2.249 1.823-4.073 4.073-4.073h18.274c2.249 0 4.073 1.823 4.073 4.073v45.782c0 2.249-1.824 4.072-4.073 4.072z" fill="url(#SVGID_14_)"/></g></g><path d="m336.811 266.867c.345 0 .686-.015 1.029-.026l-168.338-168.339c-12.509 10.393-23.294 22.69-31.8 36.014-18.58 29.103 2.727 67.26 37.255 67.26h-1.768c-17.974 0-32.545 14.571-32.545 32.545 0 17.974 14.571 32.545 32.545 32.545-17.974 0-32.545 14.571-32.545 32.545 0 17.974 14.571 32.545 32.545 32.545-17.974 0-32.545 14.571-32.545 32.545 0 17.974 14.571 32.545 32.545 32.545h6.045c-26.708 0-48.36 21.651-48.36 48.36v45.33c0 10.639 8.625 19.264 19.264 19.264h209.724c10.639 0 19.264-8.625 19.264-19.264v-45.33c0-26.708-21.651-48.36-48.36-48.36h6.045c17.974 0 32.545-14.571 32.545-32.545 0-17.974-14.571-32.545-32.545-32.545 17.974 0 32.545-14.571 32.545-32.545 0-.363-.016-.722-.027-1.082l-31.435-31.435c-.36-.012-.72-.027-1.083-.027z" fill="url(#SVGID_15_)"/><path d="m379.126 474.793v-29.387c0-12.55-4.782-23.982-12.621-32.577l-24.672 24.671z" fill="url(#SVGID_16_)"/><g><g><path d="m133.31 133.31c-67.11 67.1-67.11 176.28 0 243.38 9 9 18.75 16.79 29.06 23.38-11.7 4.36-21.26 13.11-26.67 24.24-9.53-6.72-18.62-14.35-27.14-22.87-80.75-80.75-80.75-212.13 0-292.88.1-.11.21-.21.32-.32l-6.46-6.46c-7.41-7.41-3.64-20.08 6.61-22.22l47.65-9.97c9.3-1.95 17.54 6.29 15.59 15.6l-9.97 47.64c-2.14 10.25-14.81 14.02-22.22 6.62l-6.45-6.46c-.11.11-.22.21-.32.32z" fill="url(#SVGID_17_)"/><path d="m108.56 401.44c8.52 8.52 17.61 16.15 27.14 22.87 5.41-11.13 14.97-19.88 26.67-24.24-10.31-6.59-20.06-14.38-29.06-23.38-15.817-15.815-27.903-33.969-36.264-53.357h-37.527c9.929 28.547 26.274 55.34 49.041 78.107z" fill="url(#SVGID_18_)"/><g><path d="m162.3 132.83 7.236-34.577-35.906 34.737 6.45 6.46c7.41 7.4 20.08 3.63 22.22-6.62z" fill="url(#SVGID_19_)"/><path d="m109.03 79.56c-10.25 2.14-14.02 14.81-6.61 22.22l6.46 6.46 43.432-37.736z" fill="url(#SVGID_20_)"/></g><path d="m407.58 408.22c7.41 7.41 3.64 20.08-6.61 22.22l-47.65 9.97c-9.3 1.95-17.54-6.29-15.59-15.6l9.97-47.64c2.14-10.25 14.81-14.02 22.22-6.62l6.45 6.46c.11-.11.22-.21.32-.32 67.11-67.1 67.11-176.28 0-243.38-4.74-4.74-9.68-9.14-14.81-13.21-13.85-17.03-31.58-31.52-51.8-41.19-8.64-4.13-14.21-12.78-14.21-22.36v-2.62h8.54c35.58 8.68 69.3 26.89 97.03 54.63 80.75 80.75 80.75 212.13 0 292.88-.1.11-.21.21-.32.32z" fill="url(#SVGID_21_)"/><g><path d="m369.92 370.55c-7.41-7.4-20.08-3.63-22.22 6.62l-7.236 34.577 35.906-34.737z" fill="url(#SVGID_22_)"/><path d="m407.58 408.22-6.46-6.46-43.432 37.736 43.281-9.056c10.251-2.14 14.021-14.81 6.611-22.22z" fill="url(#SVGID_23_)"/></g></g><path d="m310.08 78.91c20.22 9.67 37.95 24.16 51.8 41.19 5.13 4.07 10.07 8.47 14.81 13.21 9.902 9.9 18.33 20.722 25.31 32.184v-56.359c-.189-.19-.37-.385-.56-.574-27.73-27.74-61.45-45.95-97.03-54.63h-8.54v2.62c0 9.579 5.57 18.229 14.21 22.359z" fill="url(#SVGID_24_)"/></g></g></svg>