<svg id="Capa_1" enable-background="new 0 0 510 510" height="512" viewBox="0 0 510 510" width="512" xmlns="http://www.w3.org/2000/svg" xmlns:xlink="http://www.w3.org/1999/xlink"><linearGradient id="lg1"><stop offset="0" stop-color="#fee97d"/><stop offset="1" stop-color="#fac600"/></linearGradient><linearGradient id="SVGID_1_" gradientUnits="userSpaceOnUse" x1="214.722" x2="252.22" xlink:href="#lg1" y1="54.417" y2="184.911"/><linearGradient id="lg2"><stop offset="0" stop-color="#fac600" stop-opacity="0"/><stop offset=".1774" stop-color="#e8a91f" stop-opacity=".177"/><stop offset=".3677" stop-color="#d99039" stop-opacity=".368"/><stop offset=".5648" stop-color="#ce7e4b" stop-opacity=".565"/><stop offset=".7708" stop-color="#c87456" stop-opacity=".771"/><stop offset="1" stop-color="#c5715a"/></linearGradient><linearGradient id="SVGID_2_" gradientUnits="userSpaceOnUse" x1="254.996" x2="254.996" xlink:href="#lg2" y1="156.689" y2="371.009"/><linearGradient id="SVGID_3_" gradientUnits="userSpaceOnUse" x1="141.607" x2="233.103" y1="24.209" y2="232.699"><stop offset="0" stop-color="#fef056" stop-opacity="0"/><stop offset="1" stop-color="#fb2b3a"/></linearGradient><linearGradient id="SVGID_4_" gradientUnits="userSpaceOnUse" x1="51.327" x2="87.8" xlink:href="#lg1" y1="33.339" y2="69.812"/><linearGradient id="SVGID_5_" gradientUnits="userSpaceOnUse" x1="69.946" x2="69.946" xlink:href="#lg2" y1="62.667" y2="114.212"/><linearGradient id="SVGID_6_" gradientUnits="userSpaceOnUse" x1="112.757" x2="365.487" y1="167.636" y2="420.366"><stop offset="0" stop-color="#a0d4ff"/><stop offset="1" stop-color="#0593fc"/></linearGradient><linearGradient id="lg3"><stop offset="0" stop-color="#a2e62e"/><stop offset=".1231" stop-color="#97de30"/><stop offset=".3395" stop-color="#79cb36"/><stop offset=".6234" stop-color="#4aab3f"/><stop offset=".9609" stop-color="#09804c"/><stop offset="1" stop-color="#017b4e"/></linearGradient><linearGradient id="SVGID_7_" gradientUnits="userSpaceOnUse" x1="32.737" x2="299.681" xlink:href="#lg3" y1="224.873" y2="491.817"/><linearGradient id="SVGID_8_" gradientUnits="userSpaceOnUse" x1="252.437" x2="426.455" xlink:href="#lg3" y1="131.429" y2="305.447"/><linearGradient id="SVGID_9_" gradientUnits="userSpaceOnUse" x1="104.431" x2="154.665" xlink:href="#lg3" y1="232.878" y2="283.111"/><linearGradient id="SVGID_10_" gradientUnits="userSpaceOnUse" x1="264.954" x2="316.245" y1="344.581" y2="507.135"><stop offset="0" stop-color="#2740b0" stop-opacity="0"/><stop offset=".3153" stop-color="#243ba4" stop-opacity=".315"/><stop offset=".8855" stop-color="#1b2d84" stop-opacity=".886"/><stop offset="1" stop-color="#192a7d"/></linearGradient><linearGradient id="SVGID_11_" gradientUnits="userSpaceOnUse" x1="275.386" x2="85.767" y1="329.166" y2="139.547"><stop offset="0" stop-color="#b3dafe" stop-opacity="0"/><stop offset=".2577" stop-color="#c5c2c1" stop-opacity=".258"/><stop offset=".8504" stop-color="#f28628" stop-opacity=".85"/><stop offset="1" stop-color="#fe7701"/></linearGradient><g><path d="m433.493 37.712c-7.271-3.863-15.626 2.712-13.498 10.666 2.404 8.989 3.629 18.461 3.495 28.24-.001.084-.002.169-.004.253-.146 9.049-11.565 13.016-17.355 6.06-40.136-48.224-93.088-82.931-151.131-82.931-73.033 0-138.011 54.946-179.533 122.632-5.16 8.412-18.205 5.235-18.833-4.613-.006-.092-.011-.183-.017-.275-.02-.333-.037-.666-.052-.998-.546-12.382-16.509-16.823-23.581-6.644-7.175 10.327-11.407 22.85-11.483 36.362-.023 4.092.343 8.102 1.063 11.995 6.052 32.72 8.506 66.024 5.999 99.205-.373 4.942-.563 9.805-.563 14.572 0 110.327 101.631 199.764 227 199.764s227-89.437 227-199.764c0-5.207-.226-10.53-.671-15.945-2.963-36.086-1.278-72.484 5.407-108.068.996-5.303 1.584-10.746 1.728-16.298 1.061-40.795-21.491-76.426-54.971-94.213z" fill="url(#SVGID_1_)"/><path d="m62.86 126.69h-38.143c-2.047 6.227-3.177 12.87-3.216 19.774-.023 4.092.343 8.102 1.063 11.995 6.052 32.72 8.506 66.024 5.999 99.205-.373 4.942-.563 9.805-.563 14.572 0 110.327 101.631 199.764 227 199.764s227-89.437 227-199.764c0-5.207-.226-10.53-.671-15.945-2.963-36.086-1.278-72.484 5.407-108.068.996-5.303 1.584-10.746 1.728-16.298.046-1.756.032-3.499-.009-5.235h-417.651c-2.551 1.073-5.439 1.019-7.944 0z" fill="url(#SVGID_2_)"/><path d="m427.108 290.306c0 100.347-77.055 181.694-172.108 181.694s-172.108-81.347-172.108-181.694 77.055-247.612 172.108-247.612 172.108 147.265 172.108 247.612z" fill="url(#SVGID_3_)"/><g><path d="m103.333 56.062c0 19.466-14.948 35.247-33.388 35.247s-33.387-15.781-33.387-35.247 14.948-48.035 33.388-48.035 33.387 28.569 33.387 48.035z" fill="url(#SVGID_4_)"/><path d="m36.558 56.062c0 19.466 14.948 35.247 33.388 35.247 18.439 0 33.388-15.781 33.388-35.247 0-4.77-.902-10.087-2.529-15.395h-61.718c-1.626 5.308-2.529 10.625-2.529 15.395z" fill="url(#SVGID_5_)"/></g><g><path d="m454.021 308.78c0 10.444 1.403 20.703-.131 30.718-14.79 96.551-98.204 170.502-198.89 170.502-111.131 0-201.22-90.089-201.22-201.22 0-104.698 79.961-190.719 182.146-200.328 6.279-.59 12.641 1.306 19.074 1.306 111.131.001 199.021 87.891 199.021 199.022z" fill="url(#SVGID_6_)"/><path d="m145.884 437.343c-12.828 12.828-10.353 34.372 5.172 43.758 30.337 18.342 65.907 28.899 103.944 28.899 51.673 0 98.79-19.485 134.423-51.499 2.263-2.034 3.549-4.94 3.549-7.982 0-9.563-11.562-14.352-18.323-7.59-13.086 13.086-34.302 13.086-47.388 0-17.416-17.416-41.037-27.2-65.667-27.2h-20.712c-17.976 0-32.549-14.573-32.549-32.549v-1.905c0-8.632 3.429-16.911 9.533-23.015 12.711-12.711 12.711-33.32 0-46.031-18.012-18.012-47.215-18.012-65.226 0l-26.256 26.256c-10.957 10.957-10.957 28.721 0 39.678l19.501 19.501c10.956 10.958 10.956 28.723-.001 39.679z" fill="url(#SVGID_7_)"/><path d="m304.362 240.558c18.068 0 27.116 21.844 14.34 34.62-8.988 8.988-8.988 23.561 0 32.549 8.988 8.988 23.561 8.988 32.549 0l7.298-7.298c7.245-7.245 18.992-7.245 26.238 0 9.788 9.788 15.287 23.064 15.287 36.907 0 14.861 12.047 26.908 26.908 26.908 13.122 0 24.391-9.454 26.533-22.401 1.681-10.159 2.6-20.574 2.697-31.186 1.025-112.063-88.783-202.899-200.851-203.096-7.697-.014-15.292.406-22.765 1.235-9.589 1.064-13.741 12.681-6.919 19.503 4.475 4.475 4.475 11.731 0 16.206-14.645 14.645-14.645 38.389 0 53.033l17.799 17.799c16.147 16.149 38.049 25.221 60.886 25.221z" fill="url(#SVGID_8_)"/><path d="m143.632 290.463c10.239-10.239 10.239-26.841 0-37.08l-7.189-7.189c-5.074-5.074-5.074-13.3 0-18.373 8.184-8.184 2.388-22.178-9.187-22.178-20.591 0-37.283 16.692-37.283 37.283 0 15.063 4.369 29.802 12.578 42.431l.557.856c9.085 13.977 28.736 16.038 40.524 4.25z" fill="url(#SVGID_9_)"/><path d="m456.22 308.78c0 111.129-90.091 201.22-201.22 201.22-5.453 0-10.858-.213-16.2-.647-88.308-7.031-160.55-71.082-179.906-155.318-3.346-14.543-5.113-29.694-5.113-45.255 0-9.998.726-19.822 2.138-29.426h398.163c1.412 9.604 2.138 19.428 2.138 29.426z" fill="url(#SVGID_10_)"/></g><circle cx="255" cy="308.78" fill="url(#SVGID_11_)" r="201.22"/></g></svg>