<svg id="Capa_1" enable-background="new 0 0 510 510" height="512" viewBox="0 0 510 510" width="512" xmlns="http://www.w3.org/2000/svg" xmlns:xlink="http://www.w3.org/1999/xlink"><linearGradient id="lg1"><stop offset="0" stop-color="#eaf6ff"/><stop offset="1" stop-color="#b3dafe"/></linearGradient><linearGradient id="SVGID_1_" gradientUnits="userSpaceOnUse" x1="133.5" x2="379.577" xlink:href="#lg1" y1="236.5" y2="482.577"/><linearGradient id="SVGID_2_" gradientUnits="userSpaceOnUse" x1="255" x2="255" y1="372.125" y2="448.635"><stop offset="0" stop-color="#d8ecfe" stop-opacity="0"/><stop offset=".7867" stop-color="#9bd1fe" stop-opacity=".787"/><stop offset="1" stop-color="#8ac9fe"/></linearGradient><linearGradient id="lg2"><stop offset="0" stop-color="#8ac9fe" stop-opacity="0"/><stop offset=".2672" stop-color="#7db6e1" stop-opacity=".267"/><stop offset=".8432" stop-color="#5d8798" stop-opacity=".843"/><stop offset="1" stop-color="#537983"/></linearGradient><linearGradient id="SVGID_3_" gradientUnits="userSpaceOnUse" x1="235.799" x2="143.941" xlink:href="#lg2" y1="247.424" y2="155.566"/><linearGradient id="SVGID_4_" gradientUnits="userSpaceOnUse" x1="393.509" x2="289.509" xlink:href="#lg2" y1="439.638" y2="374.305"/><linearGradient id="lg3"><stop offset="0" stop-color="#a2e62e"/><stop offset=".1231" stop-color="#97de30"/><stop offset=".3395" stop-color="#79cb36"/><stop offset=".6234" stop-color="#4aab3f"/><stop offset=".9609" stop-color="#09804c"/><stop offset="1" stop-color="#017b4e"/></linearGradient><linearGradient id="SVGID_5_" gradientUnits="userSpaceOnUse" x1="255" x2="255" xlink:href="#lg3" y1="451" y2="533.555"/><linearGradient id="SVGID_6_" gradientUnits="userSpaceOnUse" x1="233.437" x2="266.525" xlink:href="#lg3" y1="357.871" y2="390.959"/><linearGradient id="SVGID_7_" gradientUnits="userSpaceOnUse" x1="237.354" x2="319.119" xlink:href="#lg3" y1="260.792" y2="342.557"/><linearGradient id="lg4"><stop offset="0" stop-color="#017b4e" stop-opacity="0"/><stop offset="1" stop-color="#026841"/></linearGradient><linearGradient id="SVGID_8_" gradientUnits="userSpaceOnUse" x1="328.867" x2="290.82" xlink:href="#lg4" y1="338.929" y2="326.246"/><linearGradient id="SVGID_9_" gradientTransform="matrix(.707 .707 -.707 .707 -720.808 -988.231)" gradientUnits="userSpaceOnUse" x1="1659.947" x2="1659.947" xlink:href="#lg4" y1="199.601" y2="261.932"/><linearGradient id="lg5"><stop offset="0" stop-color="#017b4e" stop-opacity="0"/><stop offset=".4829" stop-color="#01754a" stop-opacity=".483"/><stop offset="1" stop-color="#026841"/></linearGradient><linearGradient id="SVGID_10_" gradientTransform="matrix(.707 .707 -.707 .707 -720.808 -988.231)" gradientUnits="userSpaceOnUse" x1="1659.947" x2="1659.947" xlink:href="#lg5" y1="140.49" y2="222.455"/><linearGradient id="SVGID_11_" gradientUnits="userSpaceOnUse" x1="221.046" x2="286.763" xlink:href="#lg3" y1="401.353" y2="398.471"/><linearGradient id="SVGID_12_" gradientUnits="userSpaceOnUse" x1="256.894" x2="256.894" y1="441.142" y2="471.504"><stop offset="0" stop-color="#017b4e" stop-opacity="0"/><stop offset=".4693" stop-color="#01764a" stop-opacity=".469"/><stop offset="1" stop-color="#026841"/></linearGradient><linearGradient id="SVGID_13_" gradientUnits="userSpaceOnUse" x1="169.109" x2="267.549" xlink:href="#lg3" y1="302.327" y2="400.766"/><linearGradient id="SVGID_14_" gradientTransform="matrix(.707 -.707 .707 .707 1223.322 145.256)" gradientUnits="userSpaceOnUse" x1="-825.954" x2="-892.737" xlink:href="#lg4" y1="-591.754" y2="-591.754"/><linearGradient id="SVGID_15_" gradientTransform="matrix(.707 -.707 .707 .707 1223.322 145.256)" gradientUnits="userSpaceOnUse" x1="-856.507" x2="-856.507" xlink:href="#lg4" y1="-574.399" y2="-502.897"/><linearGradient id="SVGID_16_" gradientTransform="matrix(.707 -.707 .707 .707 1223.322 145.256)" gradientUnits="userSpaceOnUse" x1="-856.507" x2="-856.507" xlink:href="#lg5" y1="-629.74" y2="-535.712"/><linearGradient id="SVGID_18_" gradientUnits="userSpaceOnUse" x1="313.704" x2="215.157" xlink:href="#lg1" y1="276.704" y2="178.157"/><linearGradient id="lg6"><stop offset="0" stop-color="#26a6fe"/><stop offset="1" stop-color="#2740b0"/></linearGradient><linearGradient id="SVGID_19_" gradientUnits="userSpaceOnUse" x1="253.566" x2="324.073" xlink:href="#lg6" y1="171.934" y2="242.441"/><linearGradient id="SVGID_20_" gradientUnits="userSpaceOnUse" x1="231.25" x2="301.757" xlink:href="#lg6" y1="194.25" y2="264.757"/><linearGradient id="SVGID_22_" gradientUnits="userSpaceOnUse" x1="208.934" x2="279.441" xlink:href="#lg6" y1="216.566" y2="287.073"/><linearGradient id="lg7"><stop offset="0" stop-color="#fd4755"/><stop offset="1" stop-color="#d2024e"/></linearGradient><linearGradient id="SVGID_23_" gradientUnits="userSpaceOnUse" x1="114.987" x2="358.667" xlink:href="#lg7" y1="109.1" y2="352.78"/><linearGradient id="SVGID_24_" gradientUnits="userSpaceOnUse" x1="255" x2="255" xlink:href="#lg7" y1="274" y2="49.92"/><linearGradient id="lg8"><stop offset="0" stop-color="#c00148" stop-opacity="0"/><stop offset="1" stop-color="#6d3326"/></linearGradient><linearGradient id="SVGID_25_" gradientUnits="userSpaceOnUse" x1="95.046" x2="95.046" xlink:href="#lg8" y1="202" y2="296.763"/><linearGradient id="SVGID_26_" gradientUnits="userSpaceOnUse" x1="414.954" x2="414.954" xlink:href="#lg8" y1="202" y2="296.763"/><g><path d="m459 243.344-204-207.344-204 207.344v232.656h408z" fill="url(#SVGID_1_)"/><path d="m51 343.626h408v132.374h-408z" fill="url(#SVGID_2_)"/><path d="m255 36-204 207.344v49.906l182.75 182.75h225.25v-232.656z" fill="url(#SVGID_3_)"/><path d="m254.907 383.574v92.426h204.093v-78.037l-109.241-109.241z" fill="url(#SVGID_4_)"/><path d="m509.996 484c-.012-1.387-.844-2.893-2.357-4.394-24.046-23.857-128.02-41.804-252.639-41.804s-228.593 17.947-252.639 41.804c-1.513 1.501-2.345 3.007-2.357 4.394h-.004v6.631c0 10.697 8.672 19.369 19.369 19.369h471.262c10.697 0 19.369-8.672 19.369-19.369v-6.631z" fill="url(#SVGID_5_)"/><g><g><g><path d="m247.856 456.273h22.475v-40.417c0-20.406 7.946-39.591 22.376-54.02l14.339-14.339-15.893-15.893-14.339 14.339c-18.675 18.673-28.959 43.502-28.959 69.912v40.418z" fill="url(#SVGID_6_)"/><g><path d="m354.186 298.119c-.713-7.34-6.485-13.112-13.825-13.825-20.066-1.949-41.621 5.356-57.885 21.62s-23.569 37.819-21.62 57.885c.713 7.34 6.485 13.112 13.825 13.825 20.066 1.949 41.621-5.357 57.885-21.62s23.57-37.819 21.62-57.885z" fill="url(#SVGID_7_)"/><path d="m265.284 373.197c2.45 2.45 5.728 4.071 9.398 4.428 20.066 1.949 41.621-5.357 57.885-21.62 16.264-16.264 23.569-37.819 21.62-57.885-.357-3.67-1.978-6.948-4.428-9.398z" fill="url(#SVGID_8_)"/><path d="m328.449 359.827c1.405-1.216 2.781-2.486 4.118-3.823 16.264-16.264 23.569-37.819 21.62-57.885-.713-7.34-6.485-13.112-13.825-13.825-20.066-1.949-41.621 5.357-57.885 21.62-1.337 1.337-2.607 2.713-3.823 4.118v49.795z" fill="url(#SVGID_9_)"/><path d="m308.501 329.979h41.138c4.038-10.376 5.57-21.323 4.547-31.86-.713-7.34-6.485-13.112-13.825-13.825-10.537-1.023-21.484.509-31.86 4.547z" fill="url(#SVGID_10_)"/></g></g><path d="m221.217 474h71.354c5.995 0 8.358-7.769 3.377-11.107l-14.226-9.533c-6.51-4.363-10.417-11.684-10.417-19.52 0-33.87-13.189-65.711-37.138-89.658l-18.388-18.389-20.381 20.381 18.388 18.389c18.505 18.504 28.696 43.107 28.696 69.277 0 7.837-3.907 15.158-10.417 19.52l-14.226 9.533c-4.98 3.338-2.618 11.107 3.378 11.107z" fill="url(#SVGID_11_)"/><path d="m242.482 433.84c0 7.837-3.907 15.158-10.417 19.52l-14.225 9.533c-4.98 3.337-2.618 11.107 3.377 11.107h71.354c5.995 0 8.358-7.769 3.377-11.107l-14.225-9.533c-6.51-4.363-10.417-11.684-10.417-19.52 0-3.353-.135-6.685-.391-9.993h-28.939c.332 3.3.506 6.633.506 9.993z" fill="url(#SVGID_12_)"/><g><path d="m161.575 278.932c-8.42.818-15.042 7.44-15.859 15.859-2.236 23.019 6.145 47.746 24.802 66.403s43.385 27.038 66.403 24.802c8.42-.818 15.041-7.44 15.859-15.859 2.236-23.019-6.145-47.746-24.802-66.403s-43.385-27.038-66.403-24.802z" fill="url(#SVGID_13_)"/><path d="m247.7 380.918c2.81-2.81 4.67-6.57 5.079-10.781 2.236-23.018-6.145-47.746-24.802-66.403s-43.384-27.038-66.403-24.802c-4.21.409-7.971 2.269-10.781 5.079z" fill="url(#SVGID_14_)"/><path d="m232.363 308.458c-1.395-1.611-2.852-3.19-4.386-4.724-18.657-18.657-43.384-27.038-66.403-24.802-8.42.818-15.042 7.44-15.86 15.86-2.236 23.018 6.145 47.746 24.802 66.403 1.534 1.534 3.112 2.991 4.724 4.386h57.123z" fill="url(#SVGID_15_)"/><path d="m198.123 331.34v-47.192c-11.903-4.632-24.461-6.39-36.548-5.216-8.42.818-15.042 7.44-15.86 15.86-1.174 12.087.584 24.645 5.216 36.549h47.192z" fill="url(#SVGID_16_)"/></g></g></g><path d="m343.628 491.634c-.004-.98-.293-2.044-.819-3.104-8.358-16.853-44.495-29.53-87.809-29.53s-79.451 12.677-87.809 29.53c-.526 1.06-.815 2.124-.819 3.104h-.001v4.684c0 7.556 3.014 13.682 6.732 13.682h163.795c3.718 0 6.732-6.126 6.732-13.682v-4.684z" fill="url(#SVGID_5_)"/><circle cx="255" cy="218" fill="url(#SVGID_18_)" r="71.156"/><g><path d="m267.649 210.5h30.782c3.415 0 5.913-3.272 4.962-6.552-4.79-16.526-17.815-29.551-34.341-34.341-3.28-.951-6.552 1.547-6.552 4.962v30.782c0 2.844 2.305 5.149 5.149 5.149z" fill="url(#SVGID_19_)"/><path d="m247.5 205.351v-30.782c0-3.415-3.272-5.913-6.552-4.962-16.526 4.79-29.551 17.815-34.341 34.341-.951 3.28 1.547 6.552 4.962 6.552h30.782c2.844 0 5.149-2.305 5.149-5.149z" fill="url(#SVGID_20_)"/><path d="m262.5 230.649v30.782c0 3.415 3.272 5.913 6.552 4.962 16.526-4.79 29.551-17.815 34.341-34.341.951-3.28-1.547-6.552-4.962-6.552h-30.782c-2.844 0-5.149 2.305-5.149 5.149z" fill="url(#SVGID_20_)"/><path d="m242.351 225.5h-30.782c-3.415 0-5.913 3.272-4.962 6.552 4.79 16.526 17.815 29.551 34.341 34.341 3.28.951 6.552-1.547 6.552-4.962v-30.782c0-2.844-2.305-5.149-5.149-5.149z" fill="url(#SVGID_22_)"/></g><g><path d="m258.481 96.572 190.387 190.387c9.094 9.094 23.838 9.094 32.931 0l21.381-21.381c9.094-9.094 9.094-23.838 0-32.931l-221.664-221.664c-14.644-14.644-38.387-14.644-53.031 0l-221.665 221.664c-9.094 9.094-9.094 23.838 0 32.931l21.381 21.381c9.094 9.094 23.838 9.094 32.931 0l190.387-190.387c1.923-1.922 5.039-1.922 6.962 0z" fill="url(#SVGID_23_)"/><path d="m228.484 60.983-213.13 213.13 12.846 12.846c9.094 9.094 23.838 9.094 32.931 0l190.388-190.386c1.922-1.922 5.039-1.922 6.962 0l190.387 190.387c9.094 9.094 23.838 9.094 32.931 0l12.846-12.846-213.13-213.13c-14.644-14.645-38.386-14.645-53.031-.001z" fill="url(#SVGID_24_)"/><g><path d="m28.201 286.959c9.094 9.094 23.838 9.094 32.931 0l128.96-128.959h-108.624l-74.648 74.647c-9.094 9.094-9.094 23.838 0 32.931z" fill="url(#SVGID_25_)"/><path d="m503.18 265.579c9.094-9.094 9.094-23.838 0-32.931l-74.648-74.648h-108.624l128.959 128.959c9.094 9.094 23.838 9.094 32.931 0z" fill="url(#SVGID_26_)"/></g></g></g></svg>