<svg id="Capa_1" enable-background="new 0 0 510 510" height="512" viewBox="0 0 510 510" width="512" xmlns="http://www.w3.org/2000/svg" xmlns:xlink="http://www.w3.org/1999/xlink"><linearGradient id="lg1"><stop offset="0" stop-color="#a0d4ff"/><stop offset="1" stop-color="#0593fc"/></linearGradient><linearGradient id="SVGID_1_" gradientUnits="userSpaceOnUse" x1="133.846" x2="248.07" xlink:href="#lg1" y1="353.17" y2="467.395"/><linearGradient id="SVGID_2_" gradientUnits="userSpaceOnUse" x1="150.574" x2="150.574" y1="402.516" y2="323.631"><stop offset="0" stop-color="#2740b0" stop-opacity="0"/><stop offset=".2713" stop-color="#253ca8" stop-opacity=".271"/><stop offset=".7034" stop-color="#1e3291" stop-opacity=".703"/><stop offset="1" stop-color="#192a7d"/></linearGradient><linearGradient id="SVGID_3_" gradientUnits="userSpaceOnUse" x1="307.956" x2="307.956" y1="147.01" y2="313.949"><stop offset="0" stop-color="#eaf6ff"/><stop offset="1" stop-color="#b3dafe"/></linearGradient><linearGradient id="SVGID_4_" gradientUnits="userSpaceOnUse" x1="422.056" x2="521.153" y1="238.093" y2="238.093"><stop offset="0" stop-color="#d8ecfe" stop-opacity="0"/><stop offset=".7867" stop-color="#9bd1fe" stop-opacity=".787"/><stop offset="1" stop-color="#8ac9fe"/></linearGradient><linearGradient id="SVGID_5_" gradientUnits="userSpaceOnUse" x1="343.007" x2="-9.496" y1="305.721" y2="209.907"><stop offset="0" stop-color="#8ac9fe" stop-opacity="0"/><stop offset=".0634" stop-color="#85c2f3" stop-opacity=".063"/><stop offset=".3677" stop-color="#70a3c3" stop-opacity=".368"/><stop offset=".6362" stop-color="#608ca0" stop-opacity=".636"/><stop offset=".8561" stop-color="#577e8b" stop-opacity=".856"/><stop offset="1" stop-color="#537983"/></linearGradient><linearGradient id="SVGID_6_" gradientUnits="userSpaceOnUse" x1="34.259" x2="86.672" xlink:href="#lg1" y1="198.037" y2="250.451"/><linearGradient id="lg2"><stop offset="0" stop-color="#a2e62e"/><stop offset=".1231" stop-color="#97de30"/><stop offset=".3395" stop-color="#79cb36"/><stop offset=".6234" stop-color="#4aab3f"/><stop offset=".9609" stop-color="#09804c"/><stop offset="1" stop-color="#017b4e"/></linearGradient><linearGradient id="SVGID_7_" gradientUnits="userSpaceOnUse" x1="93.153" x2="249.65" xlink:href="#lg2" y1="169.194" y2="325.691"/><linearGradient id="SVGID_8_" gradientUnits="userSpaceOnUse" x1="143.163" x2="143.163" xlink:href="#lg2" y1="213.5" y2="140.122"/><linearGradient id="SVGID_9_" gradientUnits="userSpaceOnUse" x1="143.163" x2="143.163" xlink:href="#lg2" y1="267.913" y2="194.535"/><linearGradient id="SVGID_10_" gradientUnits="userSpaceOnUse" x1="143.163" x2="143.163" xlink:href="#lg2" y1="322.326" y2="248.948"/><linearGradient id="SVGID_11_" gradientUnits="userSpaceOnUse" x1="143.163" x2="143.163" y1="296.609" y2="365.896"><stop offset="0" stop-color="#017b4e" stop-opacity="0"/><stop offset="1" stop-color="#026841"/></linearGradient><g><path d="m234.717 440.438c-20.494-20.494-32.008-48.291-32.008-77.274v-41.086h-113.558v17.281c0 44.225 17.568 86.638 48.84 117.91l39.947 39.947c7.529 7.529 17.741 11.759 28.389 11.759 35.769.001 53.682-43.245 28.39-68.537z" fill="url(#SVGID_1_)"/><path d="m89.151 322.079v17.281c0 23.62 5.015 46.722 14.449 67.887h108.397c-6.066-13.76-9.288-28.755-9.288-44.083v-41.085z" fill="url(#SVGID_2_)"/><path d="m460.975 1.024c-5.771.004-11.304 4.874-16.438 13.786-25.701 27.467-144.179 141.598-338.626 141.725l.106 163.578c194.446-.126 313.073 113.85 338.81 141.284 5.146 8.906 10.685 13.769 16.456 13.765 26.99-.018 48.802-106.171 48.716-237.101-.084-130.929-22.034-237.055-49.024-237.037z" fill="url(#SVGID_3_)"/><path d="m460.975 1.024c-5.771.004-11.304 4.874-16.438 13.786-8.245 8.812-26.053 26.546-52.839 46.57v353.345c26.94 20.059 44.849 37.847 53.129 46.673 5.146 8.906 10.685 13.769 16.456 13.765 26.99-.018 48.802-106.171 48.716-237.101s-22.034-237.056-49.024-237.038z" fill="url(#SVGID_4_)"/><path d="m496.857 400.363c-8.883 46.038-21.529 74.783-35.57 74.794-5.773.012-11.309-4.85-16.454-13.757-25.74-27.432-144.372-141.415-338.817-141.285l-.106-163.582c47.789-.024 90.988-6.944 129.35-17.767z" fill="url(#SVGID_5_)"/><circle cx="74.315" cy="238.093" fill="url(#SVGID_6_)" r="74.315"/><g><path d="m218.312 356.081h-85.809c-45.067 0-81.602-36.534-81.602-81.602v-72.772c0-45.067 36.534-81.602 81.602-81.602h85.809c9.451 0 17.112 7.661 17.112 17.112v201.752c0 9.451-7.661 17.112-17.112 17.112z" fill="url(#SVGID_7_)"/><g><path d="m179.759 164.512h-72.652c-10.321 0-19.202 7.932-19.687 18.242-.518 11.007 8.253 20.094 19.146 20.094h73.193c10.586 0 19.168-8.582 19.168-19.168 0-10.586-8.581-19.168-19.168-19.168z" fill="url(#SVGID_8_)"/><path d="m179.759 218.925h-72.652c-10.321 0-19.202 7.932-19.687 18.241-.518 11.007 8.253 20.094 19.146 20.094h73.193c10.586 0 19.168-8.582 19.168-19.168 0-10.585-8.581-19.167-19.168-19.167z" fill="url(#SVGID_9_)"/><path d="m179.759 273.339h-72.652c-10.321 0-19.202 7.932-19.687 18.241-.518 11.007 8.253 20.094 19.146 20.094h73.193c10.586 0 19.168-8.582 19.168-19.168 0-10.586-8.581-19.167-19.168-19.167z" fill="url(#SVGID_10_)"/></g><path d="m50.902 261.124v13.355c0 45.067 36.534 81.602 81.602 81.602h85.809c9.451 0 17.112-7.661 17.112-17.112v-77.845z" fill="url(#SVGID_11_)"/></g></g></svg>