<svg id="Capa_1" enable-background="new 0 0 510 510" height="512" viewBox="0 0 510 510" width="512" xmlns="http://www.w3.org/2000/svg" xmlns:xlink="http://www.w3.org/1999/xlink"><linearGradient id="lg1"><stop offset="0" stop-color="#a2e62e"/><stop offset=".1231" stop-color="#97de30"/><stop offset=".3395" stop-color="#79cb36"/><stop offset=".6234" stop-color="#4aab3f"/><stop offset=".9609" stop-color="#09804c"/><stop offset="1" stop-color="#017b4e"/></linearGradient><linearGradient id="SVGID_1_" gradientUnits="userSpaceOnUse" x1="213.134" x2="274.065" xlink:href="#lg1" y1="146.012" y2="206.943"/><linearGradient id="SVGID_2_" gradientUnits="userSpaceOnUse" x1="220.347" x2="370.913" xlink:href="#lg1" y1="-32.754" y2="117.813"/><linearGradient id="lg2"><stop offset="0" stop-color="#017b4e" stop-opacity="0"/><stop offset="1" stop-color="#026841"/></linearGradient><linearGradient id="SVGID_3_" gradientUnits="userSpaceOnUse" x1="388.864" x2="318.803" xlink:href="#lg2" y1="111.131" y2="87.777"/><linearGradient id="SVGID_4_" gradientTransform="matrix(.707 .707 -.707 .707 563.554 -896.954)" gradientUnits="userSpaceOnUse" x1="551.129" x2="551.129" xlink:href="#lg2" y1="842.591" y2="957.369"/><linearGradient id="lg3"><stop offset="0" stop-color="#017b4e" stop-opacity="0"/><stop offset=".4829" stop-color="#01754a" stop-opacity=".483"/><stop offset="1" stop-color="#026841"/></linearGradient><linearGradient id="SVGID_5_" gradientTransform="matrix(.707 .707 -.707 .707 563.554 -896.954)" gradientUnits="userSpaceOnUse" x1="551.129" x2="551.129" xlink:href="#lg3" y1="733.741" y2="884.676"/><linearGradient id="SVGID_6_" gradientUnits="userSpaceOnUse" x1="210.591" x2="284.233" xlink:href="#lg1" y1="234.148" y2="234.148"/><linearGradient id="SVGID_7_" gradientUnits="userSpaceOnUse" x1="94.679" x2="275.95" xlink:href="#lg1" y1="43.731" y2="225.002"/><linearGradient id="SVGID_8_" gradientTransform="matrix(.707 -.707 .707 .707 250.599 988.894)" gradientUnits="userSpaceOnUse" x1="614.34" x2="491.363" xlink:href="#lg2" y1="-700.099" y2="-700.099"/><linearGradient id="SVGID_9_" gradientTransform="matrix(.707 -.707 .707 .707 250.599 988.894)" gradientUnits="userSpaceOnUse" x1="558.079" x2="558.079" xlink:href="#lg2" y1="-668.141" y2="-536.473"/><linearGradient id="SVGID_10_" gradientTransform="matrix(.707 -.707 .707 .707 250.599 988.894)" gradientUnits="userSpaceOnUse" x1="558.079" x2="558.079" xlink:href="#lg3" y1="-770.048" y2="-596.902"/><linearGradient id="SVGID_11_" gradientUnits="userSpaceOnUse" x1="158.796" x2="432.731" y1="364.136" y2="638.072"><stop offset="0" stop-color="#c5715a"/><stop offset="1" stop-color="#883f2e"/></linearGradient><linearGradient id="lg4"><stop offset="0" stop-color="#883f2e" stop-opacity="0"/><stop offset="1" stop-color="#6d3326"/></linearGradient><linearGradient id="SVGID_12_" gradientUnits="userSpaceOnUse" x1="268.234" x2="403.356" xlink:href="#lg4" y1="396.353" y2="314.519"/><linearGradient id="SVGID_13_" gradientUnits="userSpaceOnUse" x1="126.605" x2="158.007" xlink:href="#lg4" y1="439.832" y2="288.533"/><linearGradient id="SVGID_14_" gradientUnits="userSpaceOnUse" x1="255" x2="255" xlink:href="#lg4" y1="458.616" y2="508.543"/><g><g><g><path d="m239.686 327.214h41.387v-74.426c0-37.577 14.633-72.905 41.204-99.475l26.404-26.405-29.265-29.265-26.404 26.405c-34.389 34.386-53.326 80.107-53.326 128.74z" fill="url(#SVGID_1_)"/><g><path d="m435.489 35.983c-1.313-13.516-11.942-24.145-25.458-25.458-36.95-3.589-76.644 9.864-106.592 39.812-29.949 29.949-43.402 69.643-39.812 106.593 1.313 13.516 11.942 24.145 25.458 25.458 36.95 3.589 76.643-9.864 106.592-39.813 29.948-29.949 43.401-69.642 39.812-106.592z" fill="url(#SVGID_2_)"/><path d="m271.779 174.235c4.511 4.511 10.547 7.497 17.305 8.153 36.95 3.589 76.643-9.864 106.592-39.813s43.402-69.642 39.813-106.592c-.657-6.758-3.642-12.795-8.153-17.305z" fill="url(#SVGID_3_)"/><path d="m388.093 149.615c2.587-2.239 5.12-4.578 7.582-7.04 29.949-29.949 43.402-69.642 39.813-106.592-1.313-13.516-11.942-24.145-25.458-25.458-36.95-3.589-76.644 9.864-106.592 39.812-2.462 2.462-4.801 4.996-7.04 7.583v91.695z" fill="url(#SVGID_4_)"/><path d="m351.362 94.652h75.754c7.435-19.108 10.257-39.265 8.373-58.668-1.313-13.516-11.942-24.145-25.458-25.458-19.403-1.885-39.561.938-58.669 8.372z" fill="url(#SVGID_5_)"/></g></g><path d="m282.867 381.352h-53.076v-95.446c0-48.191-18.765-93.496-52.842-127.57l-33.861-33.862 37.531-37.531 33.861 33.862c44.101 44.098 68.388 102.732 68.388 165.101v95.446z" fill="url(#SVGID_6_)"/><g><path d="m80.804.651c-15.505 1.506-27.698 13.7-29.205 29.204-4.117 42.388 11.315 87.922 45.671 122.278s79.891 49.789 122.278 45.671c15.505-1.506 27.698-13.699 29.204-29.204 4.117-42.387-11.315-87.922-45.671-122.278-34.355-34.355-79.89-49.788-122.277-45.671z" fill="url(#SVGID_7_)"/><path d="m239.4 188.452c5.175-5.175 8.6-12.099 9.353-19.852 4.118-42.387-11.315-87.922-45.671-122.278-34.356-34.355-79.891-49.788-122.278-45.671-7.753.753-14.677 4.178-19.852 9.353z" fill="url(#SVGID_8_)"/><path d="m211.157 55.021c-2.568-2.967-5.252-5.874-8.076-8.698-34.355-34.356-79.89-49.789-122.277-45.672-15.505 1.506-27.698 13.7-29.204 29.204-4.117 42.387 11.315 87.922 45.671 122.278 2.824 2.824 5.731 5.508 8.698 8.076h105.189z" fill="url(#SVGID_9_)"/><path d="m148.106 97.158v-86.902c-21.92-8.529-45.043-11.767-67.302-9.605-15.505 1.506-27.698 13.7-29.204 29.204-2.162 22.258 1.076 45.383 9.604 67.302h86.902z" fill="url(#SVGID_10_)"/></g></g><g><path d="m460.34 510c27.426 0 49.66-22.233 49.66-49.66s-22.233-49.66-49.66-49.66c-4.602 0-9.052.639-13.281 1.811-9.981-28.675-37.232-49.262-69.308-49.262-8.359 0-16.383 1.417-23.868 3.991-15.038-39.999-53.629-68.467-98.883-68.467s-83.845 28.469-98.883 68.467c-7.485-2.574-15.509-3.991-23.868-3.991-32.076 0-59.327 20.587-69.308 49.262-4.229-1.172-8.679-1.811-13.281-1.811-27.427.001-49.66 22.234-49.66 49.66s22.233 49.66 49.66 49.66z" fill="url(#SVGID_11_)"/><path d="m304.366 436.615c0-32.171 20.709-59.487 49.517-69.394-15.038-39.999-53.629-68.467-98.883-68.467-58.334 0-105.623 47.289-105.623 105.623s47.289 105.623 105.623 105.623c25.841 0 49.504-9.293 67.859-24.702-11.498-12.956-18.493-29.999-18.493-48.683z" fill="url(#SVGID_12_)"/><path d="m187.154 485.317c-13.436 15.148-33.058 24.683-54.905 24.683-40.537 0-73.385-32.848-73.385-73.385 0-40.536 32.848-73.384 73.385-73.384 8.355 0 16.386 1.389 23.865 3.977-4.358 11.571-6.737 24.094-6.737 37.168 0 32.506 14.673 61.567 37.777 80.941z" fill="url(#SVGID_13_)"/><path d="m0 460.34c0 27.427 22.233 49.66 49.66 49.66h410.68c27.426 0 49.66-22.233 49.66-49.66 0-9.33-2.578-18.056-7.054-25.514h-495.892c-4.476 7.458-7.054 16.184-7.054 25.514z" fill="url(#SVGID_14_)"/></g></g></svg>