<svg id="Capa_1" enable-background="new 0 0 510 510" height="512" viewBox="0 0 510 510" width="512" xmlns="http://www.w3.org/2000/svg" xmlns:xlink="http://www.w3.org/1999/xlink"><linearGradient id="lg1"><stop offset="0" stop-color="#a2e62e"/><stop offset=".1231" stop-color="#97de30"/><stop offset=".3395" stop-color="#79cb36"/><stop offset=".6234" stop-color="#4aab3f"/><stop offset=".9609" stop-color="#09804c"/><stop offset="1" stop-color="#017b4e"/></linearGradient><linearGradient id="SVGID_1_" gradientUnits="userSpaceOnUse" x1="184.333" x2="411.651" xlink:href="#lg1" y1="183.677" y2="410.995"/><linearGradient id="lg2"><stop offset="0" stop-color="#017b4e" stop-opacity="0"/><stop offset="1" stop-color="#026841"/></linearGradient><linearGradient id="SVGID_2_" gradientUnits="userSpaceOnUse" x1="438.751" x2="332.977" xlink:href="#lg2" y1="400.908" y2="365.65"/><linearGradient id="SVGID_3_" gradientTransform="matrix(.707 .707 -.707 .707 -2069.712 -1987.688)" gradientUnits="userSpaceOnUse" x1="3405.116" x2="3405.116" xlink:href="#lg2" y1="-75.334" y2="97.952"/><linearGradient id="lg3"><stop offset="0" stop-color="#017b4e" stop-opacity="0"/><stop offset=".4829" stop-color="#01754a" stop-opacity=".483"/><stop offset="1" stop-color="#026841"/></linearGradient><linearGradient id="SVGID_4_" gradientTransform="matrix(.707 .707 -.707 .707 -2069.712 -1987.688)" gradientUnits="userSpaceOnUse" x1="3405.116" x2="3405.116" xlink:href="#lg3" y1="-239.671" y2="-11.796"/><linearGradient id="SVGID_5_" gradientUnits="userSpaceOnUse" x1="454.994" x2="393.986" y1="454.339" y2="393.331"><stop offset="0" stop-color="#017b4e" stop-opacity="0"/><stop offset="1" stop-color="#01525a"/></linearGradient><linearGradient id="SVGID_6_" gradientUnits="userSpaceOnUse" x1="91.649" x2="383.008" y1="68.625" y2="359.983"><stop offset="0" stop-color="#a0d4ff"/><stop offset="1" stop-color="#0593fc"/></linearGradient><linearGradient id="SVGID_7_" gradientUnits="userSpaceOnUse" x1="203.299" x2="507.6" xlink:href="#lg1" y1="20.771" y2="325.071"/><linearGradient id="SVGID_8_" gradientUnits="userSpaceOnUse" x1="60.275" x2="253.788" xlink:href="#lg1" y1="238.755" y2="432.268"/><linearGradient id="SVGID_9_" gradientUnits="userSpaceOnUse" x1="164.743" x2="164.743" y1="334.166" y2="442.128"><stop offset="0" stop-color="#017b4e" stop-opacity="0"/><stop offset=".4693" stop-color="#01764a" stop-opacity=".469"/><stop offset="1" stop-color="#026841"/></linearGradient><linearGradient id="SVGID_10_" gradientUnits="userSpaceOnUse" x1="312.774" x2="417.043" xlink:href="#lg1" y1="221.366" y2="325.635"/><linearGradient id="SVGID_11_" gradientUnits="userSpaceOnUse" x1="266.475" x2="325.606" y1="273.249" y2="460.648"><stop offset="0" stop-color="#2740b0" stop-opacity="0"/><stop offset=".3153" stop-color="#243ba4" stop-opacity=".315"/><stop offset=".8855" stop-color="#1b2d84" stop-opacity=".886"/><stop offset="1" stop-color="#192a7d"/></linearGradient><linearGradient id="SVGID_12_" gradientUnits="userSpaceOnUse" x1="60.822" x2="312.944" xlink:href="#lg1" y1="294.8" y2="546.922"/><linearGradient id="SVGID_13_" gradientTransform="matrix(.707 -.707 .707 .707 2883.865 -101.84)" gradientUnits="userSpaceOnUse" x1="-2198.409" x2="-2369.452" xlink:href="#lg2" y1="-1606.564" y2="-1606.564"/><linearGradient id="SVGID_14_" gradientTransform="matrix(.707 -.707 .707 .707 2883.865 -101.84)" gradientUnits="userSpaceOnUse" x1="-2276.659" x2="-2276.659" xlink:href="#lg2" y1="-1562.116" y2="-1378.985"/><linearGradient id="SVGID_15_" gradientTransform="matrix(.707 -.707 .707 .707 2883.865 -101.84)" gradientUnits="userSpaceOnUse" x1="-2276.659" x2="-2276.659" xlink:href="#lg3" y1="-1703.853" y2="-1463.032"/><g><g><g><path d="m509.143 287.453c-1.982-20.406-18.03-36.453-38.435-38.435-55.785-5.419-115.713 14.892-160.928 60.106-45.215 45.215-65.526 105.143-60.107 160.928 1.982 20.406 18.03 36.453 38.435 38.435 55.785 5.419 115.712-14.892 160.928-60.107 45.215-45.215 65.526-105.141 60.107-160.927z" fill="url(#SVGID_1_)"/><path d="m261.982 496.178c6.81 6.811 15.924 11.318 26.127 12.309 55.785 5.419 115.712-14.892 160.927-60.107s65.526-105.142 60.107-160.927c-.991-10.203-5.499-19.317-12.309-26.127z" fill="url(#SVGID_2_)"/><path d="m437.588 459.009c3.905-3.38 7.73-6.911 11.448-10.629 45.215-45.215 65.526-105.142 60.107-160.927-1.982-20.406-18.03-36.453-38.435-38.435-55.785-5.419-115.713 14.892-160.928 60.107-3.717 3.717-7.249 7.542-10.629 11.448v138.437z" fill="url(#SVGID_3_)"/><path d="m382.132 376.028h114.37c11.225-28.848 15.486-59.281 12.641-88.574-1.982-20.406-18.03-36.453-38.435-38.435-29.294-2.845-59.727 1.415-88.575 12.64v114.369z" fill="url(#SVGID_4_)"/></g></g><path d="m509.143 287.453c-1.982-20.406-18.03-36.453-38.435-38.435-55.785-5.419-115.713 14.892-160.928 60.106-45.215 45.215-65.526 105.143-60.107 160.928 1.982 20.406 18.03 36.453 38.435 38.435 55.785 5.419 115.712-14.892 160.928-60.107 45.215-45.215 65.526-105.141 60.107-160.927z" fill="url(#SVGID_5_)"/><g><g><path d="m486.976 231.976c0 128.117-103.859 231.975-231.975 231.975s-231.976-103.859-231.976-231.975c0-68.062 29.312-129.278 76-171.712 41.196-37.443 95.92-57.535 155.975-57.535 43.848 0 84.855 9.437 119.83 30.577 67.213 40.628 112.146 114.402 112.146 198.67z" fill="url(#SVGID_6_)"/><path d="m380.794 83.762c14.789-14.789 11.935-39.626-5.962-50.447-34.975-21.144-75.981-33.315-119.832-33.315-59.571 0-113.89 22.463-154.969 59.37-2.609 2.344-4.091 5.695-4.091 9.202 0 11.024 13.329 16.545 21.124 8.75 15.086-15.086 39.545-15.086 54.631 0 20.078 20.078 47.31 31.358 75.704 31.358h23.878c20.724 0 37.524 16.8 37.524 37.524v2.196c0 9.952-3.953 19.496-10.99 26.533-14.654 14.654-14.654 38.413 0 53.066 20.765 20.765 54.431 20.765 75.196 0l30.27-30.27c12.631-12.631 12.631-33.111 0-45.743l-22.482-22.482c-12.633-12.631-12.633-33.11-.001-45.742z" fill="url(#SVGID_7_)"/><path d="m198.094 310.625c-20.829 0-31.26-25.183-16.532-39.911 10.362-10.362 10.362-27.162 0-37.524-10.362-10.362-27.162-10.362-37.523 0l-8.414 8.414c-8.353 8.353-21.895 8.353-30.248 0-11.284-11.284-17.624-26.589-17.624-42.548 0-17.132-13.888-31.02-31.02-31.02-15.128 0-28.119 10.9-30.588 25.825-1.937 11.711-2.998 23.719-3.11 35.953-1.182 129.192 102.353 233.911 231.55 234.138 8.873.016 17.63-.468 26.244-1.424 11.054-1.226 15.841-14.62 7.977-22.484-5.159-5.159-5.159-13.524 0-18.683 16.883-16.883 16.883-44.256 0-61.139l-20.52-20.52c-18.616-18.618-43.865-29.077-70.192-29.077z" fill="url(#SVGID_8_)"/><path d="m28.018 280.19c22.035 104.976 114.667 183.564 226.566 183.761 8.873.016 17.63-.468 26.244-1.424 11.054-1.226 15.841-14.62 7.977-22.484-5.159-5.159-5.159-13.524 0-18.684 16.883-16.883 16.883-44.256 0-61.139l-20.52-20.52c-18.616-18.616-43.865-29.075-70.193-29.075-16.795 0-26.819-16.372-22.355-30.435z" fill="url(#SVGID_9_)"/><path d="m443.277 280.58c-5.533-6.943-13.375-11-22.079-11.424-.512-.025-1.03-.038-1.541-.038-8.155 0-15.854 3.143-21.678 8.849-1.052 1.031-2.022 2.125-2.906 3.273-.883-1.148-1.853-2.242-2.905-3.273-5.824-5.707-13.522-8.849-21.678-8.849-.51 0-1.029.013-1.541.038-8.704.424-16.545 4.481-22.079 11.424-5.975 7.497-8.419 17.308-6.707 26.92 2.204 12.373 9.936 24.263 22.98 35.341 10.027 8.516 20.657 14.357 26.1 17.081 1.801.901 3.817 1.378 5.83 1.378s4.028-.476 5.83-1.378c5.444-2.724 16.073-8.566 26.1-17.081 13.044-11.077 20.776-22.968 22.98-35.34 1.713-9.613-.731-19.425-6.706-26.921z" fill="url(#SVGID_10_)"/></g><path d="m486.976 231.976c0 128.114-103.861 231.975-231.975 231.975-6.286 0-12.518-.246-18.676-.746-101.807-8.105-185.09-81.946-207.405-179.058-3.857-16.766-5.895-34.232-5.895-52.172 0-11.526.837-22.852 2.465-33.923h459.02c1.629 11.072 2.466 22.398 2.466 33.924z" fill="url(#SVGID_11_)"/></g><g><path d="m41.525 234.883c-21.565 2.095-38.525 19.054-40.619 40.619-5.727 58.955 15.738 122.287 63.521 170.071 47.784 47.784 111.116 69.249 170.071 63.522 21.565-2.095 38.524-19.054 40.619-40.619 5.727-58.955-15.738-122.286-63.522-170.07-47.784-47.785-111.116-69.25-170.07-63.523z" fill="url(#SVGID_12_)"/><path d="m262.108 496.086c7.198-7.197 11.961-16.828 13.008-27.611 5.727-58.954-15.738-122.286-63.522-170.07s-111.115-69.249-170.07-63.522c-10.783 1.048-20.414 5.811-27.611 13.009z" fill="url(#SVGID_13_)"/><path d="m222.827 310.503c-3.572-4.127-7.304-8.17-11.232-12.098-47.784-47.784-111.115-69.249-170.07-63.522-21.565 2.095-38.525 19.054-40.619 40.619-5.727 58.955 15.738 122.287 63.522 170.071 3.928 3.928 7.971 7.661 12.098 11.233h146.302z" fill="url(#SVGID_14_)"/><path d="m135.132 369.11v-120.868c-30.487-11.863-62.649-16.366-93.607-13.359-21.565 2.095-38.525 19.054-40.619 40.619-3.007 30.958 1.496 63.121 13.358 93.608z" fill="url(#SVGID_15_)"/></g></g></svg>