<svg id="Capa_1" enable-background="new 0 0 510 510" height="512" viewBox="0 0 510 510" width="512" xmlns="http://www.w3.org/2000/svg" xmlns:xlink="http://www.w3.org/1999/xlink"><linearGradient id="lg1"><stop offset="0" stop-color="#c5715a"/><stop offset="1" stop-color="#883f2e"/></linearGradient><linearGradient id="SVGID_1_" gradientUnits="userSpaceOnUse" x1="130.149" x2="170.466" xlink:href="#lg1" y1="323.38" y2="323.38"/><linearGradient id="SVGID_2_" gradientUnits="userSpaceOnUse" x1="326.216" x2="351.898" xlink:href="#lg1" y1="311.005" y2="336.686"/><linearGradient id="SVGID_3_" gradientUnits="userSpaceOnUse" x1="203.146" x2="315.319" xlink:href="#lg1" y1="348.529" y2="348.529"/><linearGradient id="lg2"><stop offset="0" stop-color="#883f2e" stop-opacity="0"/><stop offset="1" stop-color="#6d3326"/></linearGradient><linearGradient id="SVGID_4_" gradientUnits="userSpaceOnUse" x1="330.547" x2="256.813" xlink:href="#lg2" y1="371.202" y2="268.347"/><linearGradient id="SVGID_5_" gradientUnits="userSpaceOnUse" x1="255" x2="255" xlink:href="#lg2" y1="433.726" y2="466.159"/><linearGradient id="SVGID_6_" gradientUnits="userSpaceOnUse" x1="333.21" x2="275.21" xlink:href="#lg2" y1="437.494" y2="409.494"/><linearGradient id="lg3"><stop offset="0" stop-color="#a2e62e"/><stop offset=".1231" stop-color="#97de30"/><stop offset=".3395" stop-color="#79cb36"/><stop offset=".6234" stop-color="#4aab3f"/><stop offset=".9609" stop-color="#09804c"/><stop offset="1" stop-color="#017b4e"/></linearGradient><linearGradient id="SVGID_7_" gradientUnits="userSpaceOnUse" x1="137.057" x2="345.85" xlink:href="#lg3" y1="70.763" y2="279.556"/><linearGradient id="lg4"><stop offset="0" stop-color="#017b4e" stop-opacity="0"/><stop offset=".4829" stop-color="#01754a" stop-opacity=".483"/><stop offset="1" stop-color="#026841"/></linearGradient><linearGradient id="SVGID_8_" gradientUnits="userSpaceOnUse" x1="103.338" x2="74.527" xlink:href="#lg4" y1="178.091" y2="300.773"/><linearGradient id="SVGID_9_" gradientUnits="userSpaceOnUse" x1="298.617" x2="348.805" xlink:href="#lg4" y1="198.703" y2="289.785"/><linearGradient id="SVGID_10_" gradientUnits="userSpaceOnUse" x1="263.677" x2="189.324" xlink:href="#lg4" y1="85.529" y2="-31.577"/><linearGradient id="SVGID_11_" gradientUnits="userSpaceOnUse" x1="361.253" x2="451.406" xlink:href="#lg4" y1="151.346" y2="129.97"/><linearGradient id="SVGID_12_" gradientUnits="userSpaceOnUse" x1="171.095" x2="124.452" xlink:href="#lg4" y1="166.305" y2="67.097"/><linearGradient id="SVGID_13_" gradientUnits="userSpaceOnUse" x1="255.006" x2="255.006" xlink:href="#lg4" y1="216.863" y2="290.118"/><linearGradient id="SVGID_14_" gradientUnits="userSpaceOnUse" x1="255" x2="255" xlink:href="#lg3" y1="451" y2="533.555"/><linearGradient id="SVGID_15_" gradientUnits="userSpaceOnUse" x1="236.781" x2="259.29" xlink:href="#lg3" y1="395.001" y2="417.51"/><linearGradient id="SVGID_16_" gradientUnits="userSpaceOnUse" x1="239.446" x2="295.068" xlink:href="#lg3" y1="328.961" y2="384.584"/><linearGradient id="lg5"><stop offset="0" stop-color="#017b4e" stop-opacity="0"/><stop offset="1" stop-color="#026841"/></linearGradient><linearGradient id="SVGID_17_" gradientUnits="userSpaceOnUse" x1="301.699" x2="275.817" xlink:href="#lg5" y1="382.115" y2="373.488"/><linearGradient id="SVGID_18_" gradientTransform="matrix(.707 .707 -.707 .707 -1252.808 -767.869)" gradientUnits="userSpaceOnUse" x1="1898.263" x2="1898.263" xlink:href="#lg5" y1="-283.735" y2="-241.334"/><linearGradient id="SVGID_19_" gradientTransform="matrix(.707 .707 -.707 .707 -1252.808 -767.869)" gradientUnits="userSpaceOnUse" x1="1898.263" x2="1898.263" xlink:href="#lg4" y1="-323.946" y2="-268.188"/><linearGradient id="SVGID_20_" gradientUnits="userSpaceOnUse" x1="228.353" x2="273.058" xlink:href="#lg3" y1="424.581" y2="422.62"/><linearGradient id="SVGID_21_" gradientUnits="userSpaceOnUse" x1="252.738" x2="252.738" y1="451.648" y2="472.302"><stop offset="0" stop-color="#017b4e" stop-opacity="0"/><stop offset=".4693" stop-color="#01764a" stop-opacity=".469"/><stop offset="1" stop-color="#026841"/></linearGradient><linearGradient id="SVGID_22_" gradientUnits="userSpaceOnUse" x1="193.022" x2="259.987" xlink:href="#lg3" y1="357.216" y2="424.182"/><linearGradient id="SVGID_23_" gradientTransform="matrix(.707 -.707 .707 .707 1443.684 -386.744)" gradientUnits="userSpaceOnUse" x1="-1389.627" x2="-1435.058" xlink:href="#lg5" y1="-329.298" y2="-329.298"/><linearGradient id="SVGID_24_" gradientTransform="matrix(.707 -.707 .707 .707 1443.684 -386.744)" gradientUnits="userSpaceOnUse" x1="-1410.411" x2="-1410.411" xlink:href="#lg5" y1="-317.492" y2="-268.852"/><linearGradient id="SVGID_25_" gradientTransform="matrix(.707 -.707 .707 .707 1443.684 -386.744)" gradientUnits="userSpaceOnUse" x1="-1410.411" x2="-1410.411" xlink:href="#lg4" y1="-355.139" y2="-291.175"/><g><g><path d="m166.98 307.615 22.933-22.933-9.858-9.858-21.115 21.115c-8.122 8.122-22.102 4.718-25.343-6.302-.023-.077-.045-.154-.067-.23l-12.796-44.125-13.389 3.883 12.796 44.125c3.71 12.794 10.65 24.536 20.069 33.955l74.233 74.233 9.858-9.858-57.321-57.321c-7.368-7.368-7.368-19.316 0-26.684z" fill="url(#SVGID_1_)"/><path d="m373.814 313.25-11.58-3.358c-6.22-1.804-8.227-9.616-3.648-14.195l7.917-7.917-9.859-9.858-63.51 63.51 9.859 9.858 24.531-24.531c5.938-5.938 14.637-8.174 22.703-5.835l19.706 5.715c3.697 1.072 7.564-1.056 8.636-4.753 1.071-3.697-1.058-7.563-4.755-8.636z" fill="url(#SVGID_2_)"/><path d="m308.118 348.492c-.236-30.516-.717-122.279-.852-125.434h-104.533c-.134 3.155-.615 94.917-.852 125.434-.16 20.687-3.087 41.169-8.982 59.749-5.77 18.185-13.573 32.779-22.976 43.808l-8.603 10.09c-3.982 4.67-.663 11.861 5.474 11.861h176.409c6.137 0 9.456-7.191 5.474-11.861l-8.603-10.09c-9.403-11.029-17.206-25.622-22.976-43.808-5.893-18.579-8.82-39.061-8.98-59.749z" fill="url(#SVGID_3_)"/><path d="m308.118 348.492c-.236-30.516-.717-122.279-.852-125.434h-104.533c-.093 2.193-.354 47.21-.584 84.702l125.087 125.087c-3.852-7.305-7.249-15.506-10.136-24.607-5.895-18.578-8.822-39.06-8.982-59.748z" fill="url(#SVGID_4_)"/><path d="m169.924 452.049-8.603 10.09c-3.982 4.67-.663 11.861 5.474 11.861h176.409c6.137 0 9.456-7.191 5.474-11.861l-8.603-10.09c-7.262-8.518-13.565-19.172-18.719-31.955h-132.713c-5.154 12.783-11.457 23.437-18.719 31.955z" fill="url(#SVGID_5_)"/><path d="m256.549 441.471c0 11.398 1.936 22.342 5.486 32.529h81.17c6.137 0 9.456-7.191 5.474-11.861l-8.603-10.09c-9.403-11.029-17.206-25.622-22.976-43.808-5.316-16.754-8.21-35.057-8.846-53.661-30.799 16.738-51.705 49.373-51.705 86.891z" fill="url(#SVGID_6_)"/><g><path d="m456.288 161.8c.532-3.824.813-7.727.813-11.697 0-46.504-37.699-84.203-84.203-84.203-9.655 0-18.928 1.63-27.565 4.621-6.537-39.996-41.246-70.521-83.091-70.521-27.727 0-52.321 13.404-67.664 34.082-8.946-5.011-19.255-7.88-30.238-7.88-34.232 0-61.982 27.75-61.982 61.982 0 7.038 1.19 13.794 3.351 20.099-1.163-.048-2.331-.078-3.506-.078-46.504.001-84.203 37.7-84.203 84.204s37.699 84.203 84.203 84.203c11.667 0 22.779-2.374 32.881-6.663 9.265 22.564 31.446 38.459 57.349 38.459 23.336 0 43.651-12.902 54.225-31.957 15.425 19.415 39.238 31.867 65.962 31.867 32.516 0 60.724-18.434 74.753-45.419 11.112 10.544 26.117 17.026 42.645 17.026 34.232 0 61.982-27.751 61.982-61.982 0-24.839-14.616-46.255-35.712-56.143z" fill="url(#SVGID_7_)"/><path d="m130.451 246.425c0-32.079 24.37-58.465 55.606-61.657-3.862-42.922-39.926-76.561-83.854-76.561-46.504-.001-84.203 37.698-84.203 84.202s37.699 84.203 84.203 84.203c11.667 0 22.779-2.374 32.881-6.663-2.979-7.256-4.633-15.195-4.633-23.524z" fill="url(#SVGID_8_)"/><circle cx="312.62" cy="224.115" fill="url(#SVGID_9_)" r="84.203"/><path d="m262.242 0c-27.727 0-52.321 13.404-67.664 34.082 18.937 10.607 31.744 30.854 31.744 54.103 0 21.443-10.891 40.341-27.441 51.47 15.434 17.621 38.096 28.75 63.361 28.75 46.504 0 84.203-37.699 84.203-84.203 0-46.503-37.699-84.202-84.203-84.202z" fill="url(#SVGID_10_)"/><path d="m368.035 217.942c0-34.232 27.751-61.982 61.983-61.982 9.393 0 18.292 2.101 26.27 5.84.532-3.824.813-7.727.813-11.697 0-46.504-37.699-84.203-84.203-84.203s-84.203 37.699-84.203 84.203c0 45.608 36.261 82.742 81.526 84.156-1.416-5.201-2.186-10.668-2.186-16.317z" fill="url(#SVGID_11_)"/><circle cx="164.321" cy="151.898" fill="url(#SVGID_12_)" r="49.374"/><path d="m102.203 276.612c11.667 0 22.779-2.374 32.881-6.663 9.265 22.564 31.446 38.459 57.349 38.459 23.336 0 43.651-12.902 54.225-31.957 15.425 19.415 39.238 31.867 65.962 31.867 32.516 0 60.724-18.434 74.753-45.419 11.112 10.544 26.117 17.026 42.645 17.026 34.232 0 61.982-27.751 61.982-61.982 0-8.753-1.822-17.077-5.096-24.625h-468.892c.488 46.084 37.991 83.294 84.191 83.294z" fill="url(#SVGID_13_)"/></g></g><path d="m509.996 484c-.012-1.387-.844-2.893-2.357-4.394-24.046-23.857-128.02-41.804-252.639-41.804s-228.593 17.947-252.639 41.804c-1.513 1.501-2.345 3.007-2.357 4.394h-.004v6.631c0 10.697 8.672 19.369 19.369 19.369h471.262c10.697 0 19.369-8.672 19.369-19.369v-6.631z" fill="url(#SVGID_14_)"/><g><g><g><path d="m246.59 461.941h15.289v-27.494c0-13.882 5.406-26.933 15.222-36.748l9.754-9.754-10.811-10.811-9.754 9.754c-12.704 12.703-19.7 29.593-19.7 47.559z" fill="url(#SVGID_15_)"/><g><path d="m318.923 354.354c-.485-4.993-4.412-8.92-9.405-9.405-13.65-1.326-28.314 3.644-39.377 14.707-11.064 11.064-16.033 25.727-14.707 39.377.485 4.993 4.412 8.92 9.405 9.405 13.65 1.326 28.314-3.644 39.377-14.708 11.064-11.062 16.033-25.726 14.707-39.376z" fill="url(#SVGID_16_)"/><path d="m258.446 405.427c1.666 1.667 3.896 2.769 6.393 3.012 13.65 1.326 28.313-3.644 39.377-14.708s16.033-25.727 14.708-39.377c-.243-2.497-1.345-4.727-3.012-6.393z" fill="url(#SVGID_17_)"/><path d="m301.415 396.332c.956-.827 1.892-1.691 2.801-2.601 11.064-11.064 16.033-25.727 14.708-39.377-.485-4.993-4.412-8.92-9.405-9.405-13.65-1.326-28.314 3.644-39.377 14.707-.91.91-1.774 1.845-2.601 2.801v33.874z" fill="url(#SVGID_18_)"/><path d="m287.845 376.028h27.985c2.747-7.059 3.789-14.505 3.093-21.673-.485-4.993-4.412-8.92-9.405-9.405-7.168-.696-14.615.346-21.673 3.093z" fill="url(#SVGID_19_)"/></g></g><path d="m228.468 474h48.54c4.078 0 5.685-5.285 2.297-7.556l-9.677-6.485c-4.429-2.968-7.086-7.948-7.086-13.279 0-23.04-8.972-44.701-25.264-60.991l-12.509-12.509-13.865 13.865 12.509 12.509c12.589 12.587 19.521 29.324 19.521 47.127 0 5.331-2.658 10.311-7.086 13.279l-9.677 6.485c-3.388 2.27-1.781 7.555 2.297 7.555z" fill="url(#SVGID_20_)"/><path d="m242.935 446.681c0 5.331-2.658 10.311-7.086 13.279l-9.677 6.485c-3.388 2.27-1.781 7.555 2.297 7.555h48.54c4.078 0 5.685-5.285 2.297-7.555l-9.677-6.485c-4.429-2.968-7.086-7.948-7.086-13.279 0-2.281-.092-4.548-.266-6.798h-19.687c.226 2.244.345 4.512.345 6.798z" fill="url(#SVGID_21_)"/><g><path d="m187.896 341.302c-5.728.556-10.232 5.061-10.789 10.789-1.521 15.659 4.18 32.48 16.872 45.172s29.513 18.393 45.172 16.872c5.728-.556 10.232-5.061 10.789-10.789 1.521-15.659-4.18-32.48-16.872-45.172s-29.513-18.393-45.172-16.872z" fill="url(#SVGID_22_)"/><path d="m246.485 410.679c1.912-1.912 3.177-4.47 3.455-7.334 1.521-15.659-4.18-32.48-16.872-45.172s-29.513-18.393-45.172-16.872c-2.864.278-5.422 1.543-7.334 3.455z" fill="url(#SVGID_23_)"/><path d="m236.051 361.387c-.949-1.096-1.94-2.17-2.983-3.213-12.692-12.692-29.513-18.393-45.172-16.872-5.728.556-10.232 5.061-10.789 10.789-1.521 15.659 4.18 32.48 16.872 45.172 1.043 1.043 2.117 2.035 3.213 2.983h38.859z" fill="url(#SVGID_24_)"/><path d="m212.759 376.953v-32.103c-8.098-3.151-16.64-4.347-24.863-3.548-5.728.556-10.232 5.061-10.789 10.789-.799 8.223.397 16.765 3.548 24.863h32.104z" fill="url(#SVGID_25_)"/></g></g></g><path d="m343.628 491.634c-.004-.98-.293-2.044-.819-3.104-8.358-16.853-44.495-29.53-87.809-29.53s-79.451 12.677-87.809 29.53c-.526 1.06-.815 2.124-.819 3.104h-.001v4.684c0 7.556 3.014 13.682 6.732 13.682h163.795c3.718 0 6.732-6.126 6.732-13.682v-4.684z" fill="url(#SVGID_14_)"/></g></svg>